<?xml version="1.0" encoding="UTF-8" standalone="no"?>
<!-- Created with Inkscape (http://www.inkscape.org/) -->
<svg
   xmlns:dc="http://purl.org/dc/elements/1.1/"
   xmlns:cc="http://web.resource.org/cc/"
   xmlns:rdf="http://www.w3.org/1999/02/22-rdf-syntax-ns#"
   xmlns:svg="http://www.w3.org/2000/svg"
   xmlns="http://www.w3.org/2000/svg"
   xmlns:sodipodi="http://sodipodi.sourceforge.net/DTD/sodipodi-0.dtd"
   xmlns:inkscape="http://www.inkscape.org/namespaces/inkscape"
   width="2412"
   height="1612"
   id="svg4033"
   sodipodi:version="0.32"
   inkscape:version="0.44.1"
   version="1.0"
   sodipodi:docbase="/Users/carl/Desktop"
   sodipodi:docname="Hilbert curve.svg">
  <defs
     id="defs4035" />
  <sodipodi:namedview
     id="base"
     pagecolor="#ffffff"
     bordercolor="#666666"
     borderopacity="1.0"
     gridtolerance="10000"
     guidetolerance="10"
     objecttolerance="10"
     inkscape:pageopacity="0.0"
     inkscape:pageshadow="2"
     inkscape:zoom="0.15277778"
     inkscape:cx="1206"
     inkscape:cy="806"
     inkscape:document-units="px"
     inkscape:current-layer="layer1"
     height="1612px"
     width="2412px"
     gridspacingx="6.25px"
     gridspacingy="6.25px"
     showgrid="true"
     gridempspacing="4"
     inkscape:object-points="false"
     inkscape:grid-points="true"
     showguides="true"
     inkscape:guide-bbox="true"
     inkscape:window-width="823"
     inkscape:window-height="823"
     inkscape:window-x="49"
     inkscape:window-y="22" />
  <metadata
     id="metadata4038">
    <rdf:RDF>
      <cc:Work
         rdf:about="">
        <dc:format>image/svg+xml</dc:format>
        <dc:type
           rdf:resource="http://purl.org/dc/dcmitype/StillImage" />
      </cc:Work>
    </rdf:RDF>
  </metadata>
  <g
     inkscape:label="Layer 1"
     inkscape:groupmode="layer"
     id="layer1"
     transform="translate(1,801)">
    <g
       id="g5003"
       transform="translate(5,5)">
      <rect
         y="-800"
         x="0"
         height="800"
         width="800"
         id="rect5001"
         style="fill:none;fill-opacity:1;stroke:black;stroke-width:2;stroke-miterlimit:4;stroke-dasharray:none;stroke-opacity:1" />
      <rect
         y="-800"
         x="800"
         height="800"
         width="800"
         id="rect4999"
         style="fill:none;fill-opacity:1;stroke:black;stroke-width:2;stroke-miterlimit:4;stroke-dasharray:none;stroke-opacity:1" />
      <rect
         y="0"
         x="800"
         height="800"
         width="800"
         id="rect4983"
         style="fill:none;fill-opacity:1;stroke:black;stroke-width:2;stroke-miterlimit:4;stroke-dasharray:none;stroke-opacity:1" />
      <rect
         y="0"
         x="0"
         height="800"
         width="800"
         id="rect4977"
         style="fill:none;fill-opacity:1;stroke:black;stroke-width:2;stroke-miterlimit:4;stroke-dasharray:none;stroke-opacity:1" />
      <rect
         y="-800"
         x="1600"
         height="800"
         width="800"
         id="rect4962"
         style="fill:none;fill-opacity:1;stroke:black;stroke-width:2;stroke-miterlimit:4;stroke-dasharray:none;stroke-opacity:1" />
      <rect
         y="0"
         x="1600"
         height="800"
         width="800"
         id="rect4954"
         style="fill:none;fill-opacity:1;stroke:black;stroke-width:2;stroke-miterlimit:4;stroke-dasharray:none;stroke-opacity:1" />
      <path
         id="path4043"
         d="M 900,-100 L 1100,-100 L 1100,-300 L 900,-300 L 900,-700 L 1100,-700 L 1100,-500 L 1300,-500 L 1300,-700 L 1500,-700 L 1500,-300 L 1300,-300 L 1300,-100 L 1500,-100"
         style="fill:none;fill-rule:evenodd;stroke:red;stroke-width:5;stroke-linecap:butt;stroke-linejoin:miter;stroke-miterlimit:4;stroke-dasharray:none;stroke-opacity:1" />
      <path
         id="path4041"
         d="M 200,-200 L 200,-600 L 600,-600 L 600,-200"
         style="fill:none;fill-rule:evenodd;stroke:red;stroke-width:5;stroke-linecap:butt;stroke-linejoin:miter;stroke-miterlimit:4;stroke-dasharray:none;stroke-opacity:1" />
      <path
         style="fill:none;fill-rule:evenodd;stroke:red;stroke-width:5;stroke-linecap:butt;stroke-linejoin:miter;stroke-miterlimit:4;stroke-dasharray:none;stroke-opacity:1"
         d="M 812.5,787.5 L 812.5,762.5 L 837.5,762.5 L 837.5,787.5 L 887.5,787.5 L 887.5,762.5 L 862.5,762.5 L 862.5,737.5 L 887.5,737.5 L 887.5,712.5 L 837.5,712.5 L 837.5,737.5 L 812.5,737.5 L 812.5,687.5 L 837.5,687.5 L 837.5,662.5 L 812.5,662.5 L 812.5,612.5 L 837.5,612.5 L 837.5,637.5 L 862.5,637.5 L 862.5,612.5 L 887.5,612.5 L 887.5,662.5 L 862.5,662.5 L 862.5,687.5 L 937.5,687.5 L 937.5,662.5 L 912.5,662.5 L 912.5,612.5 L 937.5,612.5 L 937.5,637.5 L 962.5,637.5 L 962.5,612.5 L 987.5,612.5 L 987.5,662.5 L 962.5,662.5 L 962.5,687.5 L 987.5,687.5 L 987.5,737.5 L 962.5,737.5 L 962.5,712.5 L 912.5,712.5 L 912.5,737.5 L 937.5,737.5 L 937.5,762.5 L 912.5,762.5 L 912.5,787.5 L 962.5,787.5 L 962.5,762.5 L 987.5,762.5 L 987.5,787.5 L 1037.5,787.5 L 1037.5,762.5 L 1012.5,762.5 L 1012.5,712.5 L 1037.5,712.5 L 1037.5,737.5 L 1062.5,737.5 L 1062.5,712.5 L 1087.5,712.5 L 1087.5,762.5 L 1062.5,762.5 L 1062.5,787.5 L 1112.5,787.5 L 1112.5,762.5 L 1137.5,762.5 L 1137.5,787.5 L 1187.5,787.5 L 1187.5,762.5 L 1162.5,762.5 L 1162.5,737.5 L 1187.5,737.5 L 1187.5,712.5 L 1137.5,712.5 L 1137.5,737.5 L 1112.5,737.5 L 1112.5,662.5 L 1137.5,662.5 L 1137.5,687.5 L 1187.5,687.5 L 1187.5,662.5 L 1162.5,662.5 L 1162.5,637.5 L 1187.5,637.5 L 1187.5,612.5 L 1137.5,612.5 L 1137.5,637.5 L 1112.5,637.5 L 1112.5,612.5 L 1062.5,612.5 L 1062.5,637.5 L 1087.5,637.5 L 1087.5,687.5 L 1062.5,687.5 L 1062.5,662.5 L 1037.5,662.5 L 1037.5,687.5 L 1012.5,687.5 L 1012.5,637.5 L 1037.5,637.5 L 1037.5,612.5 L 1012.5,612.5 L 1012.5,587.5 L 1037.5,587.5 L 1037.5,562.5 L 1012.5,562.5 L 1012.5,512.5 L 1037.5,512.5 L 1037.5,537.5 L 1062.5,537.5 L 1062.5,512.5 L 1087.5,512.5 L 1087.5,562.5 L 1062.5,562.5 L 1062.5,587.5 L 1112.5,587.5 L 1112.5,562.5 L 1137.5,562.5 L 1137.5,587.5 L 1187.5,587.5 L 1187.5,562.5 L 1162.5,562.5 L 1162.5,537.5 L 1187.5,537.5 L 1187.5,512.5 L 1137.5,512.5 L 1137.5,537.5 L 1112.5,537.5 L 1112.5,462.5 L 1137.5,462.5 L 1137.5,487.5 L 1187.5,487.5 L 1187.5,462.5 L 1162.5,462.5 L 1162.5,437.5 L 1187.5,437.5 L 1187.5,412.5 L 1137.5,412.5 L 1137.5,437.5 L 1112.5,437.5 L 1112.5,412.5 L 1062.5,412.5 L 1062.5,437.5 L 1087.5,437.5 L 1087.5,487.5 L 1062.5,487.5 L 1062.5,462.5 L 1037.5,462.5 L 1037.5,487.5 L 1012.5,487.5 L 1012.5,437.5 L 1037.5,437.5 L 1037.5,412.5 L 987.5,412.5 L 987.5,437.5 L 962.5,437.5 L 962.5,412.5 L 912.5,412.5 L 912.5,437.5 L 937.5,437.5 L 937.5,462.5 L 912.5,462.5 L 912.5,487.5 L 962.5,487.5 L 962.5,462.5 L 987.5,462.5 L 987.5,512.5 L 962.5,512.5 L 962.5,537.5 L 987.5,537.5 L 987.5,587.5 L 962.5,587.5 L 962.5,562.5 L 937.5,562.5 L 937.5,587.5 L 912.5,587.5 L 912.5,537.5 L 937.5,537.5 L 937.5,512.5 L 862.5,512.5 L 862.5,537.5 L 887.5,537.5 L 887.5,587.5 L 862.5,587.5 L 862.5,562.5 L 837.5,562.5 L 837.5,587.5 L 812.5,587.5 L 812.5,537.5 L 837.5,537.5 L 837.5,512.5 L 812.5,512.5 L 812.5,462.5 L 837.5,462.5 L 837.5,487.5 L 887.5,487.5 L 887.5,462.5 L 862.5,462.5 L 862.5,437.5 L 887.5,437.5 L 887.5,412.5 L 837.5,412.5 L 837.5,437.5 L 812.5,437.5 L 812.5,387.5 L 837.5,387.5 L 837.5,362.5 L 812.5,362.5 L 812.5,312.5 L 837.5,312.5 L 837.5,337.5 L 862.5,337.5 L 862.5,312.5 L 887.5,312.5 L 887.5,362.5 L 862.5,362.5 L 862.5,387.5 L 912.5,387.5 L 912.5,362.5 L 937.5,362.5 L 937.5,387.5 L 987.5,387.5 L 987.5,362.5 L 962.5,362.5 L 962.5,337.5 L 987.5,337.5 L 987.5,312.5 L 937.5,312.5 L 937.5,337.5 L 912.5,337.5 L 912.5,262.5 L 937.5,262.5 L 937.5,287.5 L 987.5,287.5 L 987.5,262.5 L 962.5,262.5 L 962.5,237.5 L 987.5,237.5 L 987.5,212.5 L 937.5,212.5 L 937.5,237.5 L 912.5,237.5 L 912.5,212.5 L 862.5,212.5 L 862.5,237.5 L 887.5,237.5 L 887.5,287.5 L 862.5,287.5 L 862.5,262.5 L 837.5,262.5 L 837.5,287.5 L 812.5,287.5 L 812.5,237.5 L 837.5,237.5 L 837.5,212.5 L 812.5,212.5 L 812.5,162.5 L 837.5,162.5 L 837.5,187.5 L 887.5,187.5 L 887.5,162.5 L 862.5,162.5 L 862.5,137.5 L 887.5,137.5 L 887.5,112.5 L 837.5,112.5 L 837.5,137.5 L 812.5,137.5 L 812.5,87.5 L 837.5,87.5 L 837.5,62.5 L 812.5,62.5 L 812.5,12.5 L 837.5,12.5 L 837.5,37.5 L 862.5,37.5 L 862.5,12.5 L 887.5,12.5 L 887.5,62.5 L 862.5,62.5 L 862.5,87.5 L 937.5,87.5 L 937.5,62.5 L 912.5,62.5 L 912.5,12.5 L 937.5,12.5 L 937.5,37.5 L 962.5,37.5 L 962.5,12.5 L 987.5,12.5 L 987.5,62.5 L 962.5,62.5 L 962.5,87.5 L 987.5,87.5 L 987.5,137.5 L 962.5,137.5 L 962.5,112.5 L 912.5,112.5 L 912.5,137.5 L 937.5,137.5 L 937.5,162.5 L 912.5,162.5 L 912.5,187.5 L 962.5,187.5 L 962.5,162.5 L 987.5,162.5 L 987.5,187.5 L 1012.5,187.5 L 1012.5,162.5 L 1037.5,162.5 L 1037.5,187.5 L 1087.5,187.5 L 1087.5,162.5 L 1062.5,162.5 L 1062.5,137.5 L 1087.5,137.5 L 1087.5,112.5 L 1037.5,112.5 L 1037.5,137.5 L 1012.5,137.5 L 1012.5,87.5 L 1037.5,87.5 L 1037.5,62.5 L 1012.5,62.5 L 1012.5,12.5 L 1037.5,12.5 L 1037.5,37.5 L 1062.5,37.5 L 1062.5,12.5 L 1087.5,12.5 L 1087.5,62.5 L 1062.5,62.5 L 1062.5,87.5 L 1137.5,87.5 L 1137.5,62.5 L 1112.5,62.5 L 1112.5,12.5 L 1137.5,12.5 L 1137.5,37.5 L 1162.5,37.5 L 1162.5,12.5 L 1187.5,12.5 L 1187.5,62.5 L 1162.5,62.5 L 1162.5,87.5 L 1187.5,87.5 L 1187.5,137.5 L 1162.5,137.5 L 1162.5,112.5 L 1112.5,112.5 L 1112.5,137.5 L 1137.5,137.5 L 1137.5,162.5 L 1112.5,162.5 L 1112.5,187.5 L 1162.5,187.5 L 1162.5,162.5 L 1187.5,162.5 L 1187.5,212.5 L 1162.5,212.5 L 1162.5,237.5 L 1187.5,237.5 L 1187.5,287.5 L 1162.5,287.5 L 1162.5,262.5 L 1137.5,262.5 L 1137.5,287.5 L 1112.5,287.5 L 1112.5,237.5 L 1137.5,237.5 L 1137.5,212.5 L 1087.5,212.5 L 1087.5,237.5 L 1062.5,237.5 L 1062.5,212.5 L 1012.5,212.5 L 1012.5,237.5 L 1037.5,237.5 L 1037.5,262.5 L 1012.5,262.5 L 1012.5,287.5 L 1062.5,287.5 L 1062.5,262.5 L 1087.5,262.5 L 1087.5,337.5 L 1062.5,337.5 L 1062.5,312.5 L 1012.5,312.5 L 1012.5,337.5 L 1037.5,337.5 L 1037.5,362.5 L 1012.5,362.5 L 1012.5,387.5 L 1037.5,387.5 L 1062.5,387.5 L 1062.5,362.5 L 1087.5,362.5 L 1087.5,387.5 L 1137.5,387.5 L 1137.5,362.5 L 1112.5,362.5 L 1112.5,312.5 L 1137.5,312.5 L 1137.5,337.5 L 1162.5,337.5 L 1162.5,312.5 L 1187.5,312.5 L 1187.5,362.5 L 1162.5,362.5 L 1162.5,387.5 L 1237.5,387.5 L 1237.5,362.5 L 1212.5,362.5 L 1212.5,312.5 L 1237.5,312.5 L 1237.5,337.5 L 1262.5,337.5 L 1262.5,312.5 L 1287.5,312.5 L 1287.5,362.5 L 1262.5,362.5 L 1262.5,387.5 L 1312.5,387.5 L 1312.5,362.5 L 1337.5,362.5 L 1337.5,387.5 L 1387.5,387.5 L 1387.5,362.5 L 1362.5,362.5 L 1362.5,337.5 L 1387.5,337.5 L 1387.5,312.5 L 1337.5,312.5 L 1337.5,337.5 L 1312.5,337.5 L 1312.5,262.5 L 1337.5,262.5 L 1337.5,287.5 L 1387.5,287.5 L 1387.5,262.5 L 1362.5,262.5 L 1362.5,237.5 L 1387.5,237.5 L 1387.5,212.5 L 1337.5,212.5 L 1337.5,237.5 L 1312.5,237.5 L 1312.5,212.5 L 1262.5,212.5 L 1262.5,237.5 L 1287.5,237.5 L 1287.5,287.5 L 1262.5,287.5 L 1262.5,262.5 L 1237.5,262.5 L 1237.5,287.5 L 1212.5,287.5 L 1212.5,237.5 L 1237.5,237.5 L 1237.5,212.5 L 1212.5,212.5 L 1212.5,162.5 L 1237.5,162.5 L 1237.5,187.5 L 1287.5,187.5 L 1287.5,162.5 L 1262.5,162.5 L 1262.5,137.5 L 1287.5,137.5 L 1287.5,112.5 L 1237.5,112.5 L 1237.5,137.5 L 1212.5,137.5 L 1212.5,87.5 L 1237.5,87.5 L 1237.5,62.5 L 1212.5,62.5 L 1212.5,12.5 L 1237.5,12.5 L 1237.5,37.5 C 1237.5,37.5 1237.5,37.5 1250,37.5 L 1262.5,37.5 L 1262.5,12.5 L 1287.5,12.5 L 1287.5,62.5 L 1262.5,62.5 L 1262.5,87.5 L 1337.5,87.5 L 1337.5,62.5 L 1312.5,62.5 L 1312.5,12.5 L 1337.5,12.5 L 1337.5,37.5 L 1362.5,37.5 L 1362.5,12.5 L 1387.5,12.5 L 1387.5,62.5 L 1362.5,62.5 L 1362.5,87.5 L 1387.5,87.5 L 1387.5,137.5 L 1362.5,137.5 L 1362.5,112.5 L 1312.5,112.5 L 1312.5,137.5 L 1337.5,137.5 L 1337.5,162.5 L 1312.5,162.5 L 1312.5,187.5 L 1362.5,187.5 L 1362.5,162.5 L 1387.5,162.5 L 1387.5,187.5 L 1412.5,187.5 L 1412.5,162.5 L 1437.5,162.5 L 1437.5,187.5 L 1487.5,187.5 L 1487.5,162.5 L 1462.5,162.5 L 1462.5,137.5 L 1487.5,137.5 L 1487.5,112.5 L 1437.5,112.5 L 1437.5,137.5 L 1412.5,137.5 L 1412.5,87.5 L 1437.5,87.5 L 1437.5,62.5 L 1412.5,62.5 L 1412.5,12.5 L 1437.5,12.5 L 1437.5,37.5 L 1462.5,37.5 L 1462.5,12.5 L 1487.5,12.5 L 1487.5,62.5 L 1462.5,62.5 L 1462.5,87.5 L 1537.5,87.5 L 1537.5,62.5 L 1512.5,62.5 L 1512.5,12.5 L 1537.5,12.5 L 1537.5,37.5 L 1562.5,37.5 L 1562.5,12.5 L 1587.5,12.5 L 1587.5,62.5 L 1562.5,62.5 L 1562.5,87.5 L 1587.5,87.5 L 1587.5,137.5 L 1562.5,137.5 L 1562.5,112.5 L 1512.5,112.5 L 1512.5,137.5 L 1537.5,137.5 L 1537.5,162.5 L 1512.5,162.5 L 1512.5,187.5 L 1562.5,187.5 L 1562.5,162.5 L 1587.5,162.5 L 1587.5,212.5 L 1562.5,212.5 L 1562.5,237.5 L 1587.5,237.5 L 1587.5,287.5 L 1562.5,287.5 L 1562.5,262.5 L 1537.5,262.5 L 1537.5,287.5 L 1512.5,287.5 L 1512.5,237.5 L 1537.5,237.5 L 1537.5,212.5 L 1487.5,212.5 L 1487.5,237.5 L 1462.5,237.5 L 1462.5,212.5 L 1412.5,212.5 L 1412.5,237.5 L 1437.5,237.5 L 1437.5,262.5 L 1412.5,262.5 L 1412.5,287.5 L 1462.5,287.5 L 1462.5,262.5 L 1487.5,262.5 L 1487.5,337.5 L 1462.5,337.5 L 1462.5,312.5 L 1412.5,312.5 L 1412.5,337.5 L 1437.5,337.5 L 1437.5,362.5 L 1412.5,362.5 L 1412.5,387.5 L 1462.5,387.5 L 1462.5,362.5 L 1487.5,362.5 L 1487.5,387.5 L 1537.5,387.5 L 1537.5,362.5 L 1512.5,362.5 L 1512.5,312.5 L 1537.5,312.5 L 1537.5,337.5 L 1562.5,337.5 L 1562.5,312.5 L 1587.5,312.5 L 1587.5,362.5 L 1562.5,362.5 L 1562.5,387.5 L 1587.5,387.5 L 1587.5,437.5 L 1562.5,437.5 L 1562.5,412.5 L 1512.5,412.5 L 1512.5,437.5 L 1537.5,437.5 L 1537.5,462.5 L 1512.5,462.5 L 1512.5,487.5 L 1562.5,487.5 L 1562.5,462.5 L 1587.5,462.5 L 1587.5,512.5 L 1562.5,512.5 L 1562.5,537.5 L 1587.5,537.5 L 1587.5,587.5 L 1562.5,587.5 L 1562.5,562.5 L 1537.5,562.5 L 1537.5,587.5 L 1512.5,587.5 L 1512.5,537.5 L 1537.5,537.5 L 1537.5,512.5 L 1462.5,512.5 L 1462.5,537.5 L 1487.5,537.5 L 1487.5,587.5 L 1462.5,587.5 L 1462.5,562.5 L 1437.5,562.5 L 1437.5,587.5 L 1412.5,587.5 L 1412.5,537.5 L 1437.5,537.5 L 1437.5,512.5 L 1412.5,512.5 L 1412.5,462.5 L 1437.5,462.5 L 1437.5,487.5 L 1487.5,487.5 L 1487.5,462.5 L 1462.5,462.5 L 1462.5,437.5 L 1487.5,437.5 L 1487.5,412.5 L 1437.5,412.5 L 1437.5,437.5 L 1412.5,437.5 L 1412.5,412.5 L 1362.5,412.5 L 1362.5,437.5 L 1387.5,437.5 L 1387.5,487.5 L 1362.5,487.5 L 1362.5,462.5 L 1337.5,462.5 L 1337.5,487.5 L 1312.5,487.5 L 1312.5,437.5 L 1337.5,437.5 L 1337.5,412.5 L 1287.5,412.5 L 1287.5,437.5 L 1262.5,437.5 L 1262.5,412.5 L 1212.5,412.5 L 1212.5,437.5 L 1237.5,437.5 L 1237.5,462.5 L 1212.5,462.5 L 1212.5,487.5 L 1262.5,487.5 L 1262.5,462.5 L 1287.5,462.5 L 1287.5,537.5 L 1262.5,537.5 L 1262.5,512.5 L 1212.5,512.5 L 1212.5,537.5 L 1237.5,537.5 L 1237.5,562.5 L 1212.5,562.5 L 1212.5,587.5 L 1262.5,587.5 L 1262.5,562.5 L 1287.5,562.5 L 1287.5,587.5 L 1337.5,587.5 L 1337.5,562.5 L 1312.5,562.5 L 1312.5,512.5 L 1337.5,512.5 L 1337.5,537.5 L 1362.5,537.5 L 1362.5,512.5 L 1387.5,512.5 L 1387.5,562.5 L 1362.5,562.5 L 1362.5,587.5 L 1387.5,587.5 L 1387.5,612.5 L 1362.5,612.5 L 1362.5,637.5 L 1387.5,637.5 L 1387.5,687.5 L 1362.5,687.5 L 1362.5,662.5 L 1337.5,662.5 L 1337.5,687.5 L 1312.5,687.5 L 1312.5,637.5 L 1337.5,637.5 L 1337.5,612.5 L 1287.5,612.5 L 1287.5,637.5 L 1262.5,637.5 L 1262.5,612.5 L 1212.5,612.5 L 1212.5,637.5 L 1237.5,637.5 L 1237.5,662.5 L 1212.5,662.5 L 1212.5,687.5 L 1262.5,687.5 L 1262.5,662.5 L 1287.5,662.5 L 1287.5,737.5 L 1262.5,737.5 L 1262.5,712.5 L 1212.5,712.5 L 1212.5,737.5 L 1237.5,737.5 L 1237.5,762.5 L 1212.5,762.5 L 1212.5,787.5 L 1262.5,787.5 L 1262.5,762.5 L 1287.5,762.5 L 1287.5,787.5 L 1337.5,787.5 L 1337.5,762.5 L 1312.5,762.5 L 1312.5,712.5 L 1337.5,712.5 L 1337.5,737.5 L 1362.5,737.5 L 1362.5,712.5 L 1387.5,712.5 L 1387.5,762.5 L 1362.5,762.5 L 1362.5,787.5 L 1412.5,787.5 L 1412.5,762.5 L 1437.5,762.5 L 1437.5,787.5 L 1487.5,787.5 L 1487.5,762.5 L 1462.5,762.5 L 1462.5,737.5 L 1487.5,737.5 L 1487.5,712.5 L 1437.5,712.5 L 1437.5,737.5 L 1412.5,737.5 L 1412.5,687.5 L 1437.5,687.5 L 1437.5,662.5 L 1412.5,662.5 L 1412.5,612.5 L 1437.5,612.5 L 1437.5,637.5 L 1462.5,637.5 L 1462.5,612.5 L 1487.5,612.5 L 1487.5,662.5 L 1462.5,662.5 L 1462.5,687.5 L 1537.5,687.5 L 1537.5,662.5 L 1512.5,662.5 L 1512.5,612.5 L 1537.5,612.5 L 1537.5,637.5 L 1562.5,637.5 L 1562.5,612.5 L 1587.5,612.5 L 1587.5,662.5 L 1562.5,662.5 L 1562.5,687.5 L 1587.5,687.5 L 1587.5,737.5 L 1562.5,737.5 L 1562.5,712.5 L 1512.5,712.5 L 1512.5,737.5 L 1537.5,737.5 L 1537.5,762.5 L 1512.5,762.5 L 1512.5,787.5 L 1562.5,787.5 L 1562.5,762.5 L 1587.5,762.5 L 1587.5,787.5"
         id="path4936"
         sodipodi:nodetypes="cccccccccccccccccccccccccccccccccccccccccccccccccccccccccccccccccccccccccccccccccccccccccccccccccccccccccccccccccccccccccccccccccccccccccccccccccccccccccccccccccccccccccccccccccccccccccccccccccccccccccccccccccccccccccccccccccccccccccccccccccccccccccccccccccccccccccccccccccccccccccccccccccccccccccccccccccccccccccccccccccccccccccccccccccccccccccccccccccccccccccccccccccccccccccccccccccccccccccccccccccccccccccccccccccccccccccccccccccccccccccccccccccccccccccccccccccccccccccccccccccccccccccccccccccccccccccccccccccccccccccccccccccccccccccccccccccccccccccccccccccccccc" />
      <path
         style="fill:none;fill-rule:evenodd;stroke:red;stroke-width:5;stroke-linecap:butt;stroke-linejoin:miter;stroke-miterlimit:4;stroke-dasharray:none;stroke-opacity:1"
         d="M 775,775 L 725,775 L 725,725 L 775,725 L 775,625 L 725,625 L 725,675 L 675,675 L 675,625 L 625,625 L 625,725 L 675,725 L 675,775 L 575,775 L 575,725 L 525,725 L 525,775 L 425,775 L 425,725 L 475,725 L 475,675 L 425,675 L 425,625 L 525,625 L 525,675 L 575,675 L 575,525 L 525,525 L 525,575 L 425,575 L 425,525 L 475,525 L 475,475 L 425,475 L 425,425 L 525,425 L 525,475 L 575,475 L 575,425 L 675,425 L 675,475 L 625,475 L 625,525 L 625,575 L 675,575 L 675,525 L 725,525 L 725,575 L 775,575 L 775,475 L 725,475 L 725,425 L 775,425 L 775,325 L 725,325 L 725,375 L 625,375 L 625,325 L 675,325 L 675,275 L 625,275 L 625,225 L 725,225 L 725,275 L 775,275 L 775,175 L 725,175 L 725,125 L 775,125 L 775,25 L 725,25 L 725,75 L 675,75 L 675,25 L 625,25 L 625,125 L 675,125 L 675,175 L 525,175 L 525,125 L 575,125 L 575,75 L 575,25 L 525,25 L 525,75 L 475,75 L 475,25 L 425,25 L 425,125 L 475,125 L 475,175 L 425,175 L 425,275 L 475,275 L 475,225 L 575,225 L 575,275 L 525,275 L 525,325 L 575,325 L 575,375 L 475,375 L 475,325 L 425,325 L 425,375 L 375,375 L 375,325 L 325,325 L 325,375 L 225,375 L 225,325 L 275,325 L 275,275 L 225,275 L 225,225 L 325,225 L 325,275 L 375,275 L 375,175 L 325,175 L 325,125 L 375,125 L 375,25 L 325,25 L 325,75 L 275,75 L 275,25 L 225,25 L 225,125 L 275,125 L 275,175 L 125,175 L 125,125 L 175,125 L 175,25 L 125,25 L 125,75 L 75,75 L 75,25 L 25,25 L 25,125 L 75,125 L 75,175 L 25,175 L 25,275 L 75,275 L 75,225 L 175,225 L 175,275 L 125,275 L 125,325 L 175,325 L 175,375 L 75,375 L 75,325 L 25,325 L 25,425 L 75,425 L 75,475 L 25,475 L 25,575 L 75,575 L 75,525 L 125,525 L 125,575 L 175,575 L 175,475 L 125,475 L 125,425 L 225,425 L 225,475 L 275,475 L 275,425 L 375,425 L 375,475 L 325,475 L 325,525 L 375,525 L 375,575 L 275,575 L 275,525 L 225,525 L 225,675 L 275,675 L 275,625 L 375,625 L 375,675 L 325,675 L 325,725 L 375,725 L 375,775 L 275,775 L 275,725 L 225,725 L 225,775 L 125,775 L 125,725 L 175,725 L 175,625 L 125,625 L 125,675 L 75,675 L 75,625 L 25,625 L 25,725 L 75,725 L 75,775 L 25,775"
         id="path4938"
         sodipodi:nodetypes="cccccccccccccccccccccccccccccccccccccccccccccccccccccccccccccccccccccccccccccccccccccccccccccccccccccccccccccccccccccccccccccccccccccccccccccccccccccccccccccccccccccccccccccccccccccccccccccccccccccccccccccccc" />
      <path
         style="fill:none;fill-rule:evenodd;stroke:red;stroke-width:5;stroke-linecap:butt;stroke-linejoin:miter;stroke-miterlimit:4;stroke-dasharray:none;stroke-opacity:1"
         d="M 2350,-50 L 2350,-150 L 2250,-150 L 2250,-50 L 2050,-50 L 2050,-150 L 2150,-150 L 2150,-250 L 2050,-250 L 2050,-350 L 2250,-350 L 2250,-250 L 2350,-250 L 2350,-450 L 2250,-450 L 2250,-550 L 2350,-550 L 2350,-750 L 2250,-750 L 2250,-650 L 2150,-650 L 2150,-750 L 2050,-750 L 2050,-550 L 2150,-550 L 2150,-450 L 1850,-450 L 1850,-550 L 1950,-550 L 1950,-750 L 1850,-750 L 1850,-650 L 1750,-650 L 1750,-750 L 1650,-750 L 1650,-550 L 1750,-550 L 1750,-450 L 1650,-450 L 1650,-250 L 1750,-250 L 1750,-350 L 1950,-350 L 1950,-250 L 1850,-250 L 1850,-150 L 1950,-150 L 1950,-50 L 1750,-50 L 1750,-150 L 1650,-150 L 1650,-50"
         id="path4940"
         sodipodi:nodetypes="cccccccccccccccccccccccccccccccccccccccccccccccccccc" />
      <path
         d="M 2394.2501,793.75 L 2381.7501,793.75 L 2381.7501,781.25 L 2394.2501,781.25 L 2394.2501,756.25 L 2381.7501,756.25 L 2381.7501,768.75 L 2369.2501,768.75 L 2369.2501,756.25 L 2356.7501,756.25 L 2356.7501,781.25 L 2369.2501,781.25 L 2369.2501,793.75 L 2344.2501,793.75 L 2344.2501,781.25 L 2331.7501,781.25 L 2331.7501,793.75 L 2306.7501,793.75 L 2306.7501,781.25 L 2319.2501,781.25 L 2319.2501,768.75 L 2306.7501,768.75 L 2306.7501,756.25 L 2331.7501,756.25 L 2331.7501,768.75 L 2344.2501,768.75 L 2344.2501,731.25 L 2331.7501,731.25 L 2331.7501,743.75 L 2306.7501,743.75 L 2306.7501,731.25 L 2319.2501,731.25 L 2319.2501,718.75 L 2306.7501,718.75 L 2306.7501,706.25 L 2331.7501,706.25 L 2331.7501,718.75 L 2344.2501,718.75 L 2344.2501,706.25 L 2369.2501,706.25 L 2369.2501,718.75 L 2356.7501,718.75 L 2356.7501,743.75 L 2369.2501,743.75 L 2369.2501,731.25 L 2381.7501,731.25 L 2381.7501,743.75 L 2394.2501,743.75 L 2394.2501,718.75 L 2381.7501,718.75 L 2381.7501,706.25 L 2394.2501,706.25 L 2394.2501,681.25 L 2381.7501,681.25 L 2381.7501,693.75 L 2356.7501,693.75 L 2356.7501,681.25 L 2369.2501,681.25 L 2369.2501,668.75 L 2356.7501,668.75 L 2356.7501,656.25 L 2381.7501,656.25 L 2381.7501,668.75 L 2394.2501,668.75 L 2394.2501,643.75 L 2381.7501,643.75 L 2381.7501,631.25 L 2394.2501,631.25 L 2394.2501,606.25 L 2381.7501,606.25 L 2381.7501,618.75 L 2369.2501,618.75 L 2369.2501,606.25 L 2356.7501,606.25 L 2356.7501,631.25 L 2369.2501,631.25 L 2369.2501,643.75 L 2331.7501,643.75 L 2331.7501,631.25 L 2344.2501,631.25 L 2344.2501,606.25 L 2331.7501,606.25 L 2331.7501,618.75 L 2319.2501,618.75 L 2319.2501,606.25 L 2306.7501,606.25 L 2306.7501,631.25 L 2319.2501,631.25 L 2319.2501,643.75 L 2306.7501,643.75 L 2306.7501,668.75 L 2319.2501,668.75 L 2319.2501,656.25 L 2344.2501,656.25 L 2344.2501,668.75 L 2331.7501,668.75 L 2331.7501,681.25 L 2344.2501,681.25 L 2344.2501,693.75 L 2319.2501,693.75 L 2319.2501,681.25 L 2306.7501,681.25 L 2306.7501,693.75 L 2294.2501,693.75 L 2294.2501,681.25 L 2281.7501,681.25 L 2281.7501,693.75 L 2256.7501,693.75 L 2256.7501,681.25 L 2269.2501,681.25 L 2269.2501,668.75 L 2256.7501,668.75 L 2256.7501,656.25 L 2281.7501,656.25 L 2281.7501,668.75 L 2294.2501,668.75 L 2294.2501,643.75 L 2281.7501,643.75 L 2281.7501,631.25 L 2294.2501,631.25 L 2294.2501,606.25 L 2281.7501,606.25 L 2281.7501,618.75 L 2269.2501,618.75 L 2269.2501,606.25 L 2256.7501,606.25 L 2256.7501,631.25 L 2269.2501,631.25 L 2269.2501,643.75 L 2231.7501,643.75 L 2231.7501,631.25 L 2244.2501,631.25 L 2244.2501,606.25 L 2231.7501,606.25 L 2231.7501,618.75 L 2219.2501,618.75 L 2219.2501,606.25 L 2206.7501,606.25 L 2206.7501,631.25 L 2219.2501,631.25 L 2219.2501,643.75 L 2206.7501,643.75 L 2206.7501,668.75 L 2219.2501,668.75 L 2219.2501,656.25 L 2244.2501,656.25 L 2244.2501,668.75 L 2231.7501,668.75 L 2231.7501,681.25 L 2244.2501,681.25 L 2244.2501,693.75 L 2219.2501,693.75 L 2219.2501,681.25 L 2206.7501,681.25 L 2206.7501,706.25 L 2219.2501,706.25 L 2219.2501,718.75 L 2206.7501,718.75 L 2206.7501,743.75 L 2219.2501,743.75 L 2219.2501,731.25 L 2231.7501,731.25 L 2231.7501,743.75 L 2244.2501,743.75 L 2244.2501,718.75 L 2231.7501,718.75 L 2231.7501,706.25 L 2256.7501,706.25 L 2256.7501,718.75 L 2269.2501,718.75 L 2269.2501,706.25 L 2294.2501,706.25 L 2294.2501,718.75 L 2281.7501,718.75 L 2281.7501,731.25 L 2294.2501,731.25 L 2294.2501,743.75 L 2269.2501,743.75 L 2269.2501,731.25 L 2256.7501,731.25 L 2256.7501,768.75 L 2269.2501,768.75 L 2269.2501,756.25 L 2294.2501,756.25 L 2294.2501,768.75 L 2281.7501,768.75 L 2281.7501,781.25 L 2294.2501,781.25 L 2294.2501,793.75 L 2269.2501,793.75 L 2269.2501,781.25 L 2256.7501,781.25 L 2256.7501,793.75 L 2231.7501,793.75 L 2231.7501,781.25 L 2244.2501,781.25 L 2244.2501,756.25 L 2231.7501,756.25 L 2231.7501,768.75 L 2219.2501,768.75 L 2219.2501,756.25 L 2206.7501,756.25 L 2206.7501,781.25 L 2219.2501,781.25 L 2219.2501,793.75 L 2194.2501,793.75 L 2194.2501,781.25 L 2181.7501,781.25 L 2181.7501,793.75 L 2156.7501,793.75 L 2156.7501,781.25 L 2169.2501,781.25 L 2169.2501,768.75 L 2156.7501,768.75 L 2156.7501,756.25 L 2181.7501,756.25 L 2181.7501,768.75 L 2194.2501,768.75 L 2194.2501,743.75 L 2181.7501,743.75 L 2181.7501,731.25 L 2194.2501,731.25 L 2194.2501,706.25 L 2181.7501,706.25 L 2181.7501,718.75 L 2169.2501,718.75 L 2169.2501,706.25 L 2156.7501,706.25 L 2156.7501,731.25 L 2169.2501,731.25 L 2169.2501,743.75 L 2131.7501,743.75 L 2131.7501,731.25 L 2144.2501,731.25 L 2144.2501,706.25 L 2131.7501,706.25 L 2131.7501,718.75 L 2119.2501,718.75 L 2119.2501,706.25 L 2106.7501,706.25 L 2106.7501,731.25 L 2119.2501,731.25 L 2119.2501,743.75 L 2106.7501,743.75 L 2106.7501,768.75 L 2119.2501,768.75 L 2119.2501,756.25 L 2144.2501,756.25 L 2144.2501,768.75 L 2131.7501,768.75 L 2131.7501,781.25 L 2144.2501,781.25 L 2144.2501,793.75 L 2119.2501,793.75 L 2119.2501,781.25 L 2106.7501,781.25 L 2106.7501,793.75 L 2081.7501,793.75 L 2081.7501,781.25 L 2094.2501,781.25 L 2094.2501,756.25 L 2081.7501,756.25 L 2081.7501,768.75 L 2069.2501,768.75 L 2069.2501,756.25 L 2056.7501,756.25 L 2056.7501,781.25 L 2069.2501,781.25 L 2069.2501,793.75 L 2044.2501,793.75 L 2044.2501,781.25 L 2031.7501,781.25 L 2031.7501,793.75 L 2006.7501,793.75 L 2006.7501,781.25 L 2019.2501,781.25 L 2019.2501,775 L 2019.2501,768.75 L 2006.7501,768.75 L 2006.7501,756.25 L 2031.7501,756.25 L 2031.7501,768.75 L 2044.2501,768.75 L 2044.2501,731.25 L 2031.7501,731.25 L 2031.7501,743.75 L 2006.7501,743.75 L 2006.7501,731.25 L 2019.2501,731.25 L 2019.2501,718.75 L 2006.7501,718.75 L 2006.7501,706.25 L 2031.7501,706.25 L 2031.7501,718.75 L 2044.2501,718.75 L 2044.2501,706.25 L 2069.2501,706.25 L 2069.2501,718.75 L 2056.7501,718.75 L 2056.7501,743.75 L 2069.2501,743.75 L 2069.2501,731.25 L 2081.7501,731.25 L 2081.7501,743.75 L 2094.2501,743.75 L 2094.2501,718.75 L 2081.7501,718.75 L 2081.7501,706.25 L 2094.2501,706.25 L 2094.2501,693.75 L 2081.7501,693.75 L 2081.7501,681.25 L 2094.2501,681.25 L 2094.2501,656.25 L 2081.7501,656.25 L 2081.7501,668.75 L 2069.2501,668.75 L 2069.2501,656.25 L 2056.7501,656.25 L 2056.7501,681.25 L 2069.2501,681.25 L 2069.2501,693.75 L 2044.2501,693.75 L 2044.2501,681.25 L 2031.7501,681.25 L 2031.7501,693.75 L 2006.7501,693.75 L 2006.7501,681.25 L 2019.2501,681.25 L 2019.2501,668.75 L 2006.7501,668.75 L 2006.7501,656.25 L 2031.7501,656.25 L 2031.7501,668.75 L 2044.2501,668.75 L 2044.2501,631.25 L 2031.7501,631.25 L 2031.7501,643.75 L 2006.7501,643.75 L 2006.7501,631.25 L 2013.0001,631.25 L 2019.2501,631.25 L 2019.2501,618.75 L 2006.7501,618.75 L 2006.7501,606.25 L 2031.7501,606.25 L 2031.7501,618.75 L 2044.2501,618.75 L 2044.2501,606.25 L 2069.2501,606.25 L 2069.2501,618.75 L 2056.7501,618.75 L 2056.7501,643.75 L 2069.2501,643.75 L 2069.2501,631.25 L 2081.7501,631.25 L 2081.7501,643.75 L 2094.2501,643.75 L 2094.2501,618.75 L 2081.7501,618.75 L 2081.7501,606.25 L 2106.7501,606.25 L 2106.7501,618.75 L 2119.2501,618.75 L 2119.2501,606.25 L 2144.2501,606.25 L 2144.2501,618.75 L 2131.7501,618.75 L 2131.7501,631.25 L 2144.2501,631.25 L 2144.2501,643.75 L 2119.2501,643.75 L 2119.2501,631.25 L 2106.7501,631.25 L 2106.7501,656.25 L 2119.2501,656.25 L 2119.2501,668.75 L 2106.7501,668.75 L 2106.7501,693.75 L 2119.2501,693.75 L 2119.2501,681.25 L 2131.7501,681.25 L 2131.7501,693.75 L 2144.2501,693.75 L 2144.2501,668.75 L 2131.7501,668.75 L 2131.7501,656.25 L 2169.2501,656.25 L 2169.2501,668.75 L 2156.7501,668.75 L 2156.7501,693.75 L 2169.2501,693.75 L 2169.2501,681.25 L 2181.7501,681.25 L 2181.7501,693.75 L 2194.2501,693.75 L 2194.2501,668.75 L 2181.7501,668.75 L 2181.7501,656.25 L 2194.2501,656.25 L 2194.2501,631.25 L 2181.7501,631.25 L 2181.7501,643.75 L 2156.7501,643.75 L 2156.7501,631.25 L 2169.2501,631.25 L 2169.2501,618.75 L 2156.7501,618.75 L 2156.7501,606.25 L 2181.7501,606.25 L 2181.7501,618.75 L 2194.2501,618.75 L 2194.2501,581.25 L 2181.7501,581.25 L 2181.7501,593.75 L 2156.7501,593.75 L 2156.7501,581.25 L 2169.2501,581.25 L 2169.2501,568.75 L 2156.7501,568.75 L 2156.7501,556.25 L 2181.7501,556.25 L 2181.7501,568.75 L 2194.2501,568.75 L 2194.2501,543.75 L 2181.7501,543.75 L 2181.7501,531.25 L 2194.2501,531.25 L 2194.2501,506.25 L 2181.7501,506.25 L 2181.7501,518.75 L 2169.2501,518.75 L 2169.2501,506.25 L 2156.7501,506.25 L 2156.7501,531.25 L 2169.2501,531.25 L 2169.2501,543.75 L 2131.7501,543.75 L 2131.7501,531.25 L 2144.2501,531.25 L 2144.2501,506.25 L 2131.7501,506.25 L 2131.7501,518.75 L 2119.2501,518.75 L 2119.2501,506.25 L 2106.7501,506.25 L 2106.7501,531.25 L 2119.2501,531.25 L 2119.2501,543.75 L 2106.7501,543.75 L 2106.7501,568.75 L 2119.2501,568.75 L 2119.2501,556.25 L 2144.2501,556.25 L 2144.2501,568.75 L 2131.7501,568.75 L 2131.7501,581.25 L 2144.2501,581.25 L 2144.2501,593.75 L 2119.2501,593.75 L 2119.2501,581.25 L 2106.7501,581.25 L 2106.7501,593.75 L 2081.7501,593.75 L 2081.7501,581.25 L 2094.2501,581.25 L 2094.2501,556.25 L 2081.7501,556.25 L 2081.7501,568.75 L 2069.2501,568.75 L 2069.2501,556.25 L 2056.7501,556.25 L 2056.7501,581.25 L 2069.2501,581.25 L 2069.2501,593.75 L 2044.2501,593.75 L 2044.2501,581.25 L 2031.7501,581.25 L 2031.7501,593.75 L 2006.7501,593.75 L 2006.7501,581.25 L 2019.2501,581.25 L 2019.2501,568.75 L 2006.7501,568.75 L 2006.7501,556.25 L 2031.7501,556.25 L 2031.7501,568.75 L 2044.2501,568.75 L 2044.2501,531.25 L 2031.7501,531.25 L 2031.7501,543.75 L 2006.7501,543.75 L 2006.7501,531.25 L 2019.2501,531.25 L 2019.2501,525 L 2019.2501,518.75 L 2006.7501,518.75 L 2006.7501,506.25 L 2031.7501,506.25 L 2031.7501,518.75 L 2044.2501,518.75 L 2044.2501,506.25 L 2069.2501,506.25 L 2069.2501,518.75 L 2056.7501,518.75 L 2056.7501,543.75 L 2069.2501,543.75 L 2069.2501,531.25 L 2081.7501,531.25 L 2081.7501,543.75 L 2094.2501,543.75 L 2094.2501,518.75 L 2081.7501,518.75 L 2081.7501,506.25 L 2094.2501,506.25 L 2094.2501,493.75 L 2081.7501,493.75 L 2081.7501,481.25 L 2094.2501,481.25 L 2094.2501,456.25 L 2081.7501,456.25 L 2081.7501,468.75 L 2069.2501,468.75 L 2069.2501,456.25 L 2056.7501,456.25 L 2056.7501,481.25 L 2069.2501,481.25 L 2069.2501,493.75 L 2044.2501,493.75 L 2044.2501,481.25 L 2031.7501,481.25 L 2031.7501,493.75 L 2006.7501,493.75 L 2006.7501,481.25 L 2019.2501,481.25 L 2019.2501,468.75 L 2006.7501,468.75 L 2006.7501,456.25 L 2031.7501,456.25 L 2031.7501,468.75 L 2044.2501,468.75 L 2044.2501,431.25 L 2031.7501,431.25 L 2031.7501,443.75 L 2006.7501,443.75 L 2006.7501,431.25 L 2019.2501,431.25 L 2019.2501,418.75 L 2006.7501,418.75 L 2006.7501,406.25 L 2031.7501,406.25 L 2031.7501,418.75 L 2044.2501,418.75 L 2044.2501,406.25 L 2069.2501,406.25 L 2069.2501,418.75 L 2056.7501,418.75 L 2056.7501,443.75 L 2069.2501,443.75 L 2069.2501,431.25 L 2081.7501,431.25 L 2081.7501,443.75 L 2094.2501,443.75 L 2094.2501,418.75 L 2081.7501,418.75 L 2081.7501,406.25 L 2106.7501,406.25 L 2106.7501,418.75 L 2119.2501,418.75 L 2119.2501,406.25 L 2144.2501,406.25 L 2144.2501,418.75 L 2131.7501,418.75 L 2131.7501,431.25 L 2144.2501,431.25 L 2144.2501,443.75 L 2119.2501,443.75 L 2119.2501,431.25 L 2106.7501,431.25 L 2106.7501,456.25 L 2119.2501,456.25 L 2119.2501,468.75 L 2106.7501,468.75 L 2106.7501,493.75 L 2119.2501,493.75 L 2119.2501,481.25 L 2131.7501,481.25 L 2131.7501,493.75 L 2144.2501,493.75 L 2144.2501,468.75 L 2131.7501,468.75 L 2131.7501,456.25 L 2169.2501,456.25 L 2169.2501,468.75 L 2156.7501,468.75 L 2156.7501,493.75 L 2169.2501,493.75 L 2169.2501,481.25 L 2181.7501,481.25 L 2181.7501,493.75 L 2194.2501,493.75 L 2194.2501,468.75 L 2181.7501,468.75 L 2181.7501,456.25 L 2194.2501,456.25 L 2194.2501,431.25 L 2181.7501,431.25 L 2181.7501,443.75 L 2156.7501,443.75 L 2156.7501,431.25 L 2169.2501,431.25 L 2169.2501,418.75 L 2156.7501,418.75 L 2156.7501,406.25 L 2181.7501,406.25 L 2181.7501,418.75 L 2194.2501,418.75 L 2194.2501,406.25 L 2219.2501,406.25 L 2219.2501,418.75 L 2206.7501,418.75 L 2206.7501,443.75 L 2219.2501,443.75 L 2219.2501,431.25 L 2231.7501,431.25 L 2231.7501,443.75 L 2244.2501,443.75 L 2244.2501,418.75 L 2231.7501,418.75 L 2231.7501,406.25 L 2256.7501,406.25 L 2256.7501,418.75 L 2269.2501,418.75 L 2269.2501,406.25 L 2294.2501,406.25 L 2294.2501,418.75 L 2281.7501,418.75 L 2281.7501,431.25 L 2294.2501,431.25 L 2294.2501,443.75 L 2269.2501,443.75 L 2269.2501,431.25 L 2256.7501,431.25 L 2256.7501,468.75 L 2269.2501,468.75 L 2269.2501,456.25 L 2294.2501,456.25 L 2294.2501,468.75 L 2281.7501,468.75 L 2281.7501,481.25 L 2294.2501,481.25 L 2294.2501,493.75 L 2269.2501,493.75 L 2269.2501,481.25 L 2256.7501,481.25 L 2256.7501,493.75 L 2231.7501,493.75 L 2231.7501,481.25 L 2244.2501,481.25 L 2244.2501,456.25 L 2231.7501,456.25 L 2231.7501,468.75 L 2219.2501,468.75 L 2219.2501,456.25 L 2206.7501,456.25 L 2206.7501,481.25 L 2219.2501,481.25 L 2219.2501,493.75 L 2206.7501,493.75 L 2206.7501,518.75 L 2219.2501,518.75 L 2219.2501,506.25 L 2244.2501,506.25 L 2244.2501,518.75 L 2231.7501,518.75 L 2231.7501,531.25 L 2244.2501,531.25 L 2244.2501,543.75 L 2219.2501,543.75 L 2219.2501,531.25 L 2206.7501,531.25 L 2206.7501,556.25 L 2219.2501,556.25 L 2219.2501,568.75 L 2206.7501,568.75 L 2206.7501,593.75 L 2219.2501,593.75 L 2219.2501,581.25 L 2231.7501,581.25 L 2231.7501,593.75 L 2244.2501,593.75 L 2244.2501,568.75 L 2231.7501,568.75 L 2231.7501,556.25 L 2269.2501,556.25 L 2269.2501,568.75 L 2256.7501,568.75 L 2256.7501,593.75 L 2269.2501,593.75 L 2269.2501,581.25 L 2281.7501,581.25 L 2281.7501,593.75 L 2294.2501,593.75 L 2294.2501,568.75 L 2281.7501,568.75 L 2281.7501,556.25 L 2294.2501,556.25 L 2294.2501,531.25 L 2281.7501,531.25 L 2281.7501,543.75 L 2256.7501,543.75 L 2256.7501,531.25 L 2269.2501,531.25 L 2269.2501,518.75 L 2256.7501,518.75 L 2256.7501,506.25 L 2281.7501,506.25 L 2281.7501,518.75 L 2294.2501,518.75 L 2294.2501,506.25 L 2306.7501,506.25 L 2306.7501,518.75 L 2319.2501,518.75 L 2319.2501,506.25 L 2344.2501,506.25 L 2344.2501,518.75 L 2331.7501,518.75 L 2331.7501,531.25 L 2344.2501,531.25 L 2344.2501,543.75 L 2319.2501,543.75 L 2319.2501,531.25 L 2306.7501,531.25 L 2306.7501,556.25 L 2319.2501,556.25 L 2319.2501,568.75 L 2306.7501,568.75 L 2306.7501,593.75 L 2319.2501,593.75 L 2319.2501,581.25 L 2331.7501,581.25 L 2331.7501,593.75 L 2344.2501,593.75 L 2344.2501,568.75 L 2331.7501,568.75 L 2331.7501,556.25 L 2369.2501,556.25 L 2369.2501,568.75 L 2356.7501,568.75 L 2356.7501,593.75 L 2369.2501,593.75 L 2369.2501,581.25 L 2381.7501,581.25 L 2381.7501,593.75 L 2394.2501,593.75 L 2394.2501,568.75 L 2381.7501,568.75 L 2381.7501,556.25 L 2394.2501,556.25 L 2394.2501,531.25 L 2381.7501,531.25 L 2381.7501,543.75 L 2356.7501,543.75 L 2356.7501,531.25 L 2369.2501,531.25 L 2369.2501,518.75 L 2356.7501,518.75 L 2356.7501,506.25 L 2375.5001,506.25 L 2381.7501,506.25 L 2381.7501,518.75 L 2394.2501,518.75 L 2394.2501,493.75 L 2381.7501,493.75 L 2381.7501,481.25 L 2394.2501,481.25 L 2394.2501,456.25 L 2381.7501,456.25 L 2381.7501,468.75 L 2369.2501,468.75 L 2369.2501,456.25 L 2356.7501,456.25 L 2356.7501,481.25 L 2369.2501,481.25 L 2369.2501,493.75 L 2344.2501,493.75 L 2344.2501,481.25 L 2331.7501,481.25 L 2331.7501,493.75 L 2306.7501,493.75 L 2306.7501,481.25 L 2319.2501,481.25 L 2319.2501,468.75 L 2306.7501,468.75 L 2306.7501,456.25 L 2331.7501,456.25 L 2331.7501,468.75 L 2344.2501,468.75 L 2344.2501,431.25 L 2331.7501,431.25 L 2331.7501,443.75 L 2306.7501,443.75 L 2306.7501,431.25 L 2319.2501,431.25 L 2319.2501,418.75 L 2306.7501,418.75 L 2306.7501,406.25 L 2331.7501,406.25 L 2331.7501,418.75 L 2344.2501,418.75 L 2344.2501,406.25 L 2369.2501,406.25 L 2369.2501,418.75 L 2356.7501,418.75 L 2356.7501,443.75 L 2369.2501,443.75 L 2369.2501,431.25 L 2381.7501,431.25 L 2381.7501,443.75 L 2394.2501,443.75 L 2394.2501,418.75 L 2381.7501,418.75 L 2381.7501,406.25 L 2394.2501,406.25 L 2394.2501,381.25 L 2381.7501,381.25 L 2381.7501,393.75 L 2356.7501,393.75 L 2356.7501,381.25 L 2369.2501,381.25 L 2369.2501,368.75 L 2356.7501,368.75 L 2356.7501,356.25 L 2381.7501,356.25 L 2381.7501,368.75 L 2394.2501,368.75 L 2394.2501,343.75 L 2381.7501,343.75 L 2381.7501,331.25 L 2394.2501,331.25 L 2394.2501,306.25 L 2381.7501,306.25 L 2381.7501,318.75 L 2369.2501,318.75 L 2369.2501,306.25 L 2356.7501,306.25 L 2356.7501,331.25 L 2369.2501,331.25 L 2369.2501,343.75 L 2331.7501,343.75 L 2331.7501,331.25 L 2344.2501,331.25 L 2344.2501,306.25 L 2331.7501,306.25 L 2331.7501,318.75 L 2319.2501,318.75 L 2319.2501,306.25 L 2306.7501,306.25 L 2306.7501,331.25 L 2319.2501,331.25 L 2319.2501,343.75 L 2306.7501,343.75 L 2306.7501,368.75 L 2319.2501,368.75 L 2319.2501,356.25 L 2344.2501,356.25 L 2344.2501,368.75 L 2331.7501,368.75 L 2331.7501,381.25 L 2344.2501,381.25 L 2344.2501,393.75 L 2319.2501,393.75 L 2319.2501,381.25 L 2306.7501,381.25 L 2306.7501,393.75 L 2281.7501,393.75 L 2281.7501,381.25 L 2294.2501,381.25 L 2294.2501,356.25 L 2281.7501,356.25 L 2281.7501,368.75 L 2269.2501,368.75 L 2269.2501,356.25 L 2256.7501,356.25 L 2256.7501,381.25 L 2269.2501,381.25 L 2269.2501,393.75 L 2244.2501,393.75 L 2244.2501,381.25 L 2231.7501,381.25 L 2231.7501,393.75 L 2206.7501,393.75 L 2206.7501,381.25 L 2219.2501,381.25 L 2219.2501,368.75 L 2206.7501,368.75 L 2206.7501,356.25 L 2231.7501,356.25 L 2231.7501,368.75 L 2244.2501,368.75 L 2244.2501,331.25 L 2231.7501,331.25 L 2231.7501,343.75 L 2206.7501,343.75 L 2206.7501,331.25 L 2219.2501,331.25 L 2219.2501,318.75 L 2206.7501,318.75 L 2206.7501,306.25 L 2231.7501,306.25 L 2231.7501,318.75 L 2244.2501,318.75 L 2244.2501,306.25 L 2269.2501,306.25 L 2269.2501,318.75 L 2256.7501,318.75 L 2256.7501,343.75 L 2269.2501,343.75 L 2269.2501,331.25 L 2281.7501,331.25 L 2281.7501,343.75 L 2294.2501,343.75 L 2294.2501,318.75 L 2281.7501,318.75 L 2281.7501,306.25 L 2294.2501,306.25 L 2294.2501,293.75 L 2281.7501,293.75 L 2281.7501,281.25 L 2294.2501,281.25 L 2294.2501,256.25 L 2281.7501,256.25 L 2281.7501,268.75 L 2269.2501,268.75 L 2269.2501,256.25 L 2256.7501,256.25 L 2256.7501,281.25 L 2269.2501,281.25 L 2269.2501,293.75 L 2244.2501,293.75 L 2244.2501,281.25 L 2231.7501,281.25 L 2231.7501,293.75 L 2206.7501,293.75 L 2206.7501,281.25 L 2219.2501,281.25 L 2219.2501,268.75 L 2206.7501,268.75 L 2206.7501,256.25 L 2231.7501,256.25 L 2231.7501,268.75 L 2244.2501,268.75 L 2244.2501,231.25 L 2231.7501,231.25 L 2231.7501,243.75 L 2206.7501,243.75 L 2206.7501,231.25 L 2219.2501,231.25 L 2219.2501,218.75 L 2206.7501,218.75 L 2206.7501,206.25 L 2231.7501,206.25 L 2231.7501,218.75 L 2244.2501,218.75 L 2244.2501,206.25 L 2269.2501,206.25 L 2269.2501,218.75 L 2256.7501,218.75 L 2256.7501,243.75 L 2269.2501,243.75 L 2269.2501,231.25 L 2281.7501,231.25 L 2281.7501,243.75 L 2294.2501,243.75 L 2294.2501,218.75 L 2281.7501,218.75 L 2281.7501,206.25 L 2306.7501,206.25 L 2306.7501,218.75 L 2319.2501,218.75 L 2319.2501,206.25 L 2344.2501,206.25 L 2344.2501,218.75 L 2331.7501,218.75 L 2331.7501,231.25 L 2344.2501,231.25 L 2344.2501,243.75 L 2319.2501,243.75 L 2319.2501,231.25 L 2306.7501,231.25 L 2306.7501,256.25 L 2319.2501,256.25 L 2319.2501,268.75 L 2306.7501,268.75 L 2306.7501,293.75 L 2319.2501,293.75 L 2319.2501,281.25 L 2331.7501,281.25 L 2331.7501,293.75 L 2344.2501,293.75 L 2344.2501,268.75 L 2331.7501,268.75 L 2331.7501,256.25 L 2369.2501,256.25 L 2369.2501,268.75 L 2356.7501,268.75 L 2356.7501,293.75 L 2369.2501,293.75 L 2369.2501,281.25 L 2381.7501,281.25 L 2381.7501,293.75 L 2394.2501,293.75 L 2394.2501,268.75 L 2381.7501,268.75 L 2381.7501,256.25 L 2394.2501,256.25 L 2394.2501,231.25 L 2381.7501,231.25 L 2381.7501,243.75 L 2356.7501,243.75 L 2356.7501,231.25 L 2369.2501,231.25 L 2369.2501,218.75 L 2356.7501,218.75 L 2356.7501,206.25 L 2381.7501,206.25 L 2381.7501,218.75 L 2394.2501,218.75 L 2394.2501,193.75 L 2381.7501,193.75 L 2381.7501,181.25 L 2394.2501,181.25 L 2394.2501,156.25 L 2381.7501,156.25 L 2381.7501,168.75 L 2369.2501,168.75 L 2369.2501,156.25 L 2356.7501,156.25 L 2356.7501,181.25 L 2369.2501,181.25 L 2369.2501,193.75 L 2344.2501,193.75 L 2344.2501,181.25 L 2331.7501,181.25 L 2331.7501,193.75 L 2306.7501,193.75 L 2306.7501,181.25 L 2319.2501,181.25 L 2319.2501,168.75 L 2306.7501,168.75 L 2306.7501,156.25 L 2331.7501,156.25 L 2331.7501,168.75 L 2344.2501,168.75 L 2344.2501,131.25 L 2331.7501,131.25 L 2331.7501,143.75 L 2306.7501,143.75 L 2306.7501,131.25 L 2319.2501,131.25 L 2319.2501,118.75 L 2306.7501,118.75 L 2306.7501,106.25 L 2331.7501,106.25 L 2331.7501,118.75 L 2344.2501,118.75 L 2344.2501,106.25 L 2369.2501,106.25 L 2369.2501,118.75 L 2356.7501,118.75 L 2356.7501,143.75 L 2369.2501,143.75 L 2369.2501,131.25 L 2381.7501,131.25 L 2381.7501,143.75 L 2394.2501,143.75 L 2394.2501,118.75 L 2381.7501,118.75 L 2381.7501,106.25 L 2394.2501,106.25 L 2394.2501,81.25 L 2381.7501,81.25 L 2381.7501,93.75 L 2356.7501,93.75 L 2356.7501,81.25 L 2369.2501,81.25 L 2369.2501,68.75 L 2356.7501,68.75 L 2356.7501,56.25 L 2381.7501,56.25 L 2381.7501,68.75 L 2394.2501,68.75 L 2394.2501,43.75 L 2381.7501,43.75 L 2381.7501,31.25 L 2394.2501,31.25 L 2394.2501,6.25 L 2381.7501,6.25 L 2381.7501,18.75 L 2369.2501,18.75 L 2369.2501,6.25 L 2356.7501,6.25 L 2356.7501,31.25 L 2369.2501,31.25 L 2369.2501,43.75 L 2331.7501,43.75 L 2331.7501,31.25 L 2344.2501,31.25 L 2344.2501,6.25 L 2331.7501,6.25 L 2331.7501,18.75 L 2319.2501,18.75 L 2319.2501,6.25 L 2306.7501,6.25 L 2306.7501,31.25 L 2319.2501,31.25 L 2319.2501,43.75 L 2306.7501,43.75 L 2306.7501,68.75 L 2319.2501,68.75 L 2319.2501,56.25 L 2344.2501,56.25 L 2344.2501,68.75 L 2331.7501,68.75 L 2331.7501,81.25 L 2344.2501,81.25 L 2344.2501,93.75 L 2319.2501,93.75 L 2319.2501,81.25 L 2306.7501,81.25 L 2306.7501,93.75 L 2294.2501,93.75 L 2294.2501,81.25 L 2281.7501,81.25 L 2281.7501,93.75 L 2256.7501,93.75 L 2256.7501,81.25 L 2269.2501,81.25 L 2269.2501,68.75 L 2256.7501,68.75 L 2256.7501,56.25 L 2281.7501,56.25 L 2281.7501,68.75 L 2294.2501,68.75 L 2294.2501,43.75 L 2281.7501,43.75 L 2281.7501,31.25 L 2294.2501,31.25 L 2294.2501,6.25 L 2281.7501,6.25 L 2281.7501,18.75 L 2269.2501,18.75 L 2269.2501,6.25 L 2256.7501,6.25 L 2256.7501,31.25 L 2269.2501,31.25 L 2269.2501,43.75 L 2231.7501,43.75 L 2231.7501,31.25 L 2244.2501,31.25 L 2244.2501,6.25 L 2231.7501,6.25 L 2231.7501,18.75 L 2219.2501,18.75 L 2219.2501,6.25 L 2206.7501,6.25 L 2206.7501,31.25 L 2219.2501,31.25 L 2219.2501,43.75 L 2206.7501,43.75 L 2206.7501,68.75 L 2219.2501,68.75 L 2219.2501,56.25 L 2244.2501,56.25 L 2244.2501,68.75 L 2231.7501,68.75 L 2231.7501,81.25 L 2244.2501,81.25 L 2244.2501,93.75 L 2219.2501,93.75 L 2219.2501,81.25 L 2206.7501,81.25 L 2206.7501,106.25 L 2219.2501,106.25 L 2219.2501,118.75 L 2206.7501,118.75 L 2206.7501,143.75 L 2219.2501,143.75 L 2219.2501,131.25 L 2231.7501,131.25 L 2231.7501,143.75 L 2244.2501,143.75 L 2244.2501,118.75 L 2231.7501,118.75 L 2231.7501,106.25 L 2256.7501,106.25 L 2256.7501,118.75 L 2269.2501,118.75 L 2269.2501,106.25 L 2294.2501,106.25 L 2294.2501,118.75 L 2281.7501,118.75 L 2281.7501,131.25 L 2294.2501,131.25 L 2294.2501,143.75 L 2269.2501,143.75 L 2269.2501,131.25 L 2256.7501,131.25 L 2256.7501,168.75 L 2269.2501,168.75 L 2269.2501,156.25 L 2294.2501,156.25 L 2294.2501,168.75 L 2281.7501,168.75 L 2281.7501,181.25 L 2294.2501,181.25 L 2294.2501,193.75 L 2269.2501,193.75 L 2269.2501,181.25 L 2256.7501,181.25 L 2256.7501,193.75 L 2231.7501,193.75 L 2231.7501,181.25 L 2244.2501,181.25 L 2244.2501,156.25 L 2231.7501,156.25 L 2231.7501,168.75 L 2219.2501,168.75 L 2219.2501,156.25 L 2206.7501,156.25 L 2206.7501,181.25 L 2219.2501,181.25 L 2219.2501,193.75 L 2181.7501,193.75 L 2181.7501,181.25 L 2194.2501,181.25 L 2194.2501,156.25 L 2181.7501,156.25 L 2181.7501,168.75 L 2169.2501,168.75 L 2169.2501,156.25 L 2156.7501,156.25 L 2156.7501,181.25 L 2169.2501,181.25 L 2169.2501,193.75 L 2144.2501,193.75 L 2144.2501,181.25 L 2131.7501,181.25 L 2131.7501,193.75 L 2106.7501,193.75 L 2106.7501,181.25 L 2119.2501,181.25 L 2119.2501,168.75 L 2106.7501,168.75 L 2106.7501,156.25 L 2131.7501,156.25 L 2131.7501,168.75 L 2144.2501,168.75 L 2144.2501,131.25 L 2131.7501,131.25 L 2131.7501,143.75 L 2106.7501,143.75 L 2106.7501,131.25 L 2119.2501,131.25 L 2119.2501,118.75 L 2106.7501,118.75 L 2106.7501,106.25 L 2131.7501,106.25 L 2131.7501,118.75 L 2144.2501,118.75 L 2144.2501,106.25 L 2169.2501,106.25 L 2169.2501,118.75 L 2156.7501,118.75 L 2156.7501,143.75 L 2169.2501,143.75 L 2169.2501,131.25 L 2181.7501,131.25 L 2181.7501,143.75 L 2194.2501,143.75 L 2194.2501,118.75 L 2181.7501,118.75 L 2181.7501,106.25 L 2194.2501,106.25 L 2194.2501,81.25 L 2181.7501,81.25 L 2181.7501,93.75 L 2156.7501,93.75 L 2156.7501,81.25 L 2169.2501,81.25 L 2169.2501,68.75 L 2156.7501,68.75 L 2156.7501,56.25 L 2181.7501,56.25 L 2181.7501,68.75 L 2194.2501,68.75 L 2194.2501,43.75 L 2181.7501,43.75 L 2181.7501,31.25 L 2194.2501,31.25 L 2194.2501,6.25 L 2181.7501,6.25 L 2181.7501,18.75 L 2169.2501,18.75 L 2169.2501,6.25 L 2156.7501,6.25 L 2156.7501,31.25 L 2169.2501,31.25 L 2169.2501,43.75 L 2131.7501,43.75 L 2131.7501,31.25 L 2144.2501,31.25 L 2144.2501,6.25 L 2131.7501,6.25 L 2131.7501,18.75 L 2119.2501,18.75 L 2119.2501,6.25 L 2106.7501,6.25 L 2106.7501,31.25 L 2119.2501,31.25 L 2119.2501,43.75 L 2106.7501,43.75 L 2106.7501,68.75 L 2119.2501,68.75 L 2119.2501,56.25 L 2144.2501,56.25 L 2144.2501,68.75 L 2131.7501,68.75 L 2131.7501,81.25 L 2144.2501,81.25 L 2144.2501,93.75 L 2119.2501,93.75 L 2119.2501,81.25 L 2106.7501,81.25 L 2106.7501,93.75 L 2094.2501,93.75 L 2094.2501,81.25 L 2081.7501,81.25 L 2081.7501,93.75 L 2056.7501,93.75 L 2056.7501,81.25 L 2069.2501,81.25 L 2069.2501,68.75 L 2056.7501,68.75 L 2056.7501,56.25 L 2081.7501,56.25 L 2081.7501,68.75 L 2094.2501,68.75 L 2094.2501,43.75 L 2081.7501,43.75 L 2081.7501,31.25 L 2094.2501,31.25 L 2094.2501,6.25 L 2081.7501,6.25 L 2081.7501,18.75 L 2069.2501,18.75 L 2069.2501,6.25 L 2056.7501,6.25 L 2056.7501,31.25 L 2069.2501,31.25 L 2069.2501,43.75 L 2031.7501,43.75 L 2031.7501,31.25 L 2044.2501,31.25 L 2044.2501,6.25 L 2031.7501,6.25 L 2031.7501,18.75 L 2019.2501,18.75 L 2019.2501,6.25 L 2006.7501,6.25 L 2006.7501,31.25 L 2019.2501,31.25 L 2019.2501,43.75 L 2006.7501,43.75 L 2006.7501,68.75 L 2019.2501,68.75 L 2019.2501,56.25 L 2044.2501,56.25 L 2044.2501,68.75 L 2031.7501,68.75 L 2031.7501,81.25 L 2044.2501,81.25 L 2044.2501,93.75 L 2019.2501,93.75 L 2019.2501,81.25 L 2006.7501,81.25 L 2006.7501,106.25 L 2019.2501,106.25 L 2019.2501,118.75 L 2006.7501,118.75 L 2006.7501,143.75 L 2019.2501,143.75 L 2019.2501,131.25 L 2031.7501,131.25 L 2031.7501,143.75 L 2044.2501,143.75 L 2044.2501,118.75 L 2031.7501,118.75 L 2031.7501,106.25 L 2056.7501,106.25 L 2056.7501,118.75 L 2069.2501,118.75 L 2069.2501,106.25 L 2094.2501,106.25 L 2094.2501,118.75 L 2081.7501,118.75 L 2081.7501,131.25 L 2094.2501,131.25 L 2094.2501,143.75 L 2069.2501,143.75 L 2069.2501,131.25 L 2056.7501,131.25 L 2056.7501,168.75 L 2069.2501,168.75 L 2069.2501,156.25 L 2094.2501,156.25 L 2094.2501,168.75 L 2081.7501,168.75 L 2081.7501,181.25 L 2094.2501,181.25 L 2094.2501,193.75 L 2069.2501,193.75 L 2069.2501,181.25 L 2056.7501,181.25 L 2056.7501,193.75 L 2031.7501,193.75 L 2031.7501,181.25 L 2044.2501,181.25 L 2044.2501,156.25 L 2031.7501,156.25 L 2031.7501,168.75 L 2019.2501,168.75 L 2019.2501,156.25 L 2006.7501,156.25 L 2006.7501,181.25 L 2019.2501,181.25 L 2019.2501,193.75 L 2006.7501,193.75 L 2006.7501,218.75 L 2019.2501,218.75 L 2019.2501,206.25 L 2044.2501,206.25 L 2044.2501,218.75 L 2031.7501,218.75 L 2031.7501,231.25 L 2044.2501,231.25 L 2044.2501,243.75 L 2019.2501,243.75 L 2019.2501,231.25 L 2006.7501,231.25 L 2006.7501,256.25 L 2019.2501,256.25 L 2019.2501,268.75 L 2006.7501,268.75 L 2006.7501,293.75 L 2019.2501,293.75 L 2019.2501,281.25 L 2031.7501,281.25 L 2031.7501,293.75 L 2044.2501,293.75 L 2044.2501,268.75 L 2031.7501,268.75 L 2031.7501,256.25 L 2069.2501,256.25 L 2069.2501,268.75 L 2056.7501,268.75 L 2056.7501,293.75 L 2069.2501,293.75 L 2069.2501,281.25 L 2081.7501,281.25 L 2081.7501,293.75 L 2094.2501,293.75 L 2094.2501,268.75 L 2081.7501,268.75 L 2081.7501,256.25 L 2094.2501,256.25 L 2094.2501,231.25 L 2081.7501,231.25 L 2081.7501,243.75 L 2056.7501,243.75 L 2056.7501,231.25 L 2069.2501,231.25 L 2069.2501,218.75 L 2056.7501,218.75 L 2056.7501,206.25 L 2081.7501,206.25 L 2081.7501,218.75 L 2094.2501,218.75 L 2094.2501,206.25 L 2119.2501,206.25 L 2119.2501,218.75 L 2106.7501,218.75 L 2106.7501,231.25 L 2106.7501,243.75 L 2119.2501,243.75 L 2119.2501,231.25 L 2131.7501,231.25 L 2131.7501,243.75 L 2144.2501,243.75 L 2144.2501,218.75 L 2131.7501,218.75 L 2131.7501,206.25 L 2156.7501,206.25 L 2156.7501,218.75 L 2169.2501,218.75 L 2169.2501,206.25 L 2194.2501,206.25 L 2194.2501,218.75 L 2181.7501,218.75 L 2181.7501,231.25 L 2194.2501,231.25 L 2194.2501,243.75 L 2169.2501,243.75 L 2169.2501,231.25 L 2156.7501,231.25 L 2156.7501,268.75 L 2169.2501,268.75 L 2169.2501,256.25 L 2194.2501,256.25 L 2194.2501,268.75 L 2181.7501,268.75 L 2181.7501,281.25 L 2194.2501,281.25 L 2194.2501,293.75 L 2169.2501,293.75 L 2169.2501,281.25 L 2156.7501,281.25 L 2156.7501,293.75 L 2131.7501,293.75 L 2131.7501,281.25 L 2144.2501,281.25 L 2144.2501,256.25 L 2131.7501,256.25 L 2131.7501,268.75 L 2119.2501,268.75 L 2119.2501,256.25 L 2106.7501,256.25 L 2106.7501,281.25 L 2119.2501,281.25 L 2119.2501,293.75 L 2106.7501,293.75 L 2106.7501,306.25 L 2119.2501,306.25 L 2119.2501,318.75 L 2106.7501,318.75 L 2106.7501,343.75 L 2119.2501,343.75 L 2119.2501,331.25 L 2131.7501,331.25 L 2131.7501,343.75 L 2144.2501,343.75 L 2144.2501,318.75 L 2131.7501,318.75 L 2131.7501,306.25 L 2156.7501,306.25 L 2156.7501,318.75 L 2169.2501,318.75 L 2169.2501,306.25 L 2194.2501,306.25 L 2194.2501,318.75 L 2181.7501,318.75 L 2181.7501,331.25 L 2194.2501,331.25 L 2194.2501,343.75 L 2181.7501,343.75 L 2169.2501,343.75 L 2169.2501,331.25 L 2156.7501,331.25 L 2156.7501,368.75 L 2169.2501,368.75 L 2169.2501,356.25 L 2194.2501,356.25 L 2194.2501,368.75 L 2181.7501,368.75 L 2181.7501,381.25 L 2194.2501,381.25 L 2194.2501,393.75 L 2169.2501,393.75 L 2169.2501,381.25 L 2156.7501,381.25 L 2156.7501,393.75 L 2131.7501,393.75 L 2131.7501,381.25 L 2144.2501,381.25 L 2144.2501,356.25 L 2131.7501,356.25 L 2131.7501,368.75 L 2119.2501,368.75 L 2119.2501,356.25 L 2106.7501,356.25 L 2106.7501,381.25 L 2119.2501,381.25 L 2119.2501,393.75 L 2094.2501,393.75 L 2094.2501,381.25 L 2081.7501,381.25 L 2081.7501,393.75 L 2056.7501,393.75 L 2056.7501,381.25 L 2069.2501,381.25 L 2069.2501,368.75 L 2056.7501,368.75 L 2056.7501,356.25 L 2081.7501,356.25 L 2081.7501,368.75 L 2094.2501,368.75 L 2094.2501,343.75 L 2081.7501,343.75 L 2081.7501,331.25 L 2094.2501,331.25 L 2094.2501,306.25 L 2081.7501,306.25 L 2081.7501,318.75 L 2069.2501,318.75 L 2069.2501,306.25 L 2056.7501,306.25 L 2056.7501,331.25 L 2069.2501,331.25 L 2069.2501,343.75 L 2031.7501,343.75 L 2031.7501,331.25 L 2044.2501,331.25 L 2044.2501,306.25 L 2031.7501,306.25 L 2031.7501,318.75 L 2019.2501,318.75 L 2019.2501,306.25 L 2006.7501,306.25 L 2006.7501,331.25 L 2019.2501,331.25 L 2019.2501,343.75 L 2006.7501,343.75 L 2006.7501,368.75 L 2019.2501,368.75 L 2019.2501,356.25 L 2044.2501,356.25 L 2044.2501,368.75 L 2031.7501,368.75 L 2031.7501,381.25 L 2044.2501,381.25 L 2044.2501,393.75 L 2019.2501,393.75 L 2019.2501,381.25 L 2006.7501,381.25 L 2006.7501,393.75 L 2000.5001,393.75 M 1605.7501,793.75 L 1618.2501,793.75 L 1618.2501,781.25 L 1605.7501,781.25 L 1605.7501,756.25 L 1618.2501,756.25 L 1618.2501,768.75 L 1630.7501,768.75 L 1630.7501,756.25 L 1643.2501,756.25 L 1643.2501,781.25 L 1630.7501,781.25 L 1630.7501,793.75 L 1655.7501,793.75 L 1655.7501,781.25 L 1668.2501,781.25 L 1668.2501,793.75 L 1693.2501,793.75 L 1693.2501,781.25 L 1680.7501,781.25 L 1680.7501,768.75 L 1693.2501,768.75 L 1693.2501,756.25 L 1668.2501,756.25 L 1668.2501,768.75 L 1655.7501,768.75 L 1655.7501,731.25 L 1668.2501,731.25 L 1668.2501,743.75 L 1693.2501,743.75 L 1693.2501,731.25 L 1680.7501,731.25 L 1680.7501,718.75 L 1693.2501,718.75 L 1693.2501,706.25 L 1668.2501,706.25 L 1668.2501,718.75 L 1655.7501,718.75 L 1655.7501,706.25 L 1630.7501,706.25 L 1630.7501,718.75 L 1643.2501,718.75 L 1643.2501,743.75 L 1630.7501,743.75 L 1630.7501,731.25 L 1618.2501,731.25 L 1618.2501,743.75 L 1605.7501,743.75 L 1605.7501,718.75 L 1618.2501,718.75 L 1618.2501,706.25 L 1605.7501,706.25 L 1605.7501,681.25 L 1618.2501,681.25 L 1618.2501,693.75 L 1643.2501,693.75 L 1643.2501,681.25 L 1630.7501,681.25 L 1630.7501,668.75 L 1643.2501,668.75 L 1643.2501,656.25 L 1618.2501,656.25 L 1618.2501,668.75 L 1605.7501,668.75 L 1605.7501,643.75 L 1618.2501,643.75 L 1618.2501,631.25 L 1605.7501,631.25 L 1605.7501,606.25 L 1618.2501,606.25 L 1618.2501,618.75 L 1630.7501,618.75 L 1630.7501,606.25 L 1643.2501,606.25 L 1643.2501,631.25 L 1630.7501,631.25 L 1630.7501,643.75 L 1668.2501,643.75 L 1668.2501,631.25 L 1655.7501,631.25 L 1655.7501,606.25 L 1668.2501,606.25 L 1668.2501,618.75 L 1680.7501,618.75 L 1680.7501,606.25 L 1693.2501,606.25 L 1693.2501,631.25 L 1680.7501,631.25 L 1680.7501,643.75 L 1693.2501,643.75 L 1693.2501,668.75 L 1680.7501,668.75 L 1680.7501,656.25 L 1655.7501,656.25 L 1655.7501,668.75 L 1668.2501,668.75 L 1668.2501,681.25 L 1655.7501,681.25 L 1655.7501,693.75 L 1680.7501,693.75 L 1680.7501,681.25 L 1693.2501,681.25 L 1693.2501,693.75 L 1705.7501,693.75 L 1705.7501,681.25 L 1718.2501,681.25 L 1718.2501,693.75 L 1743.2501,693.75 L 1743.2501,681.25 L 1730.7501,681.25 L 1730.7501,668.75 L 1743.2501,668.75 L 1743.2501,656.25 L 1718.2501,656.25 L 1718.2501,668.75 L 1705.7501,668.75 L 1705.7501,643.75 L 1718.2501,643.75 L 1718.2501,631.25 L 1705.7501,631.25 L 1705.7501,606.25 L 1718.2501,606.25 L 1718.2501,618.75 L 1730.7501,618.75 L 1730.7501,606.25 L 1743.2501,606.25 L 1743.2501,631.25 L 1730.7501,631.25 L 1730.7501,643.75 L 1768.2501,643.75 L 1768.2501,631.25 L 1755.7501,631.25 L 1755.7501,606.25 L 1768.2501,606.25 L 1768.2501,618.75 L 1780.7501,618.75 L 1780.7501,606.25 L 1793.2501,606.25 L 1793.2501,631.25 L 1780.7501,631.25 L 1780.7501,643.75 L 1793.2501,643.75 L 1793.2501,668.75 L 1780.7501,668.75 L 1780.7501,656.25 L 1755.7501,656.25 L 1755.7501,668.75 L 1768.2501,668.75 L 1768.2501,681.25 L 1755.7501,681.25 L 1755.7501,693.75 L 1780.7501,693.75 L 1780.7501,681.25 L 1793.2501,681.25 L 1793.2501,706.25 L 1780.7501,706.25 L 1780.7501,718.75 L 1793.2501,718.75 L 1793.2501,743.75 L 1780.7501,743.75 L 1780.7501,731.25 L 1768.2501,731.25 L 1768.2501,743.75 L 1755.7501,743.75 L 1755.7501,718.75 L 1768.2501,718.75 L 1768.2501,706.25 L 1743.2501,706.25 L 1743.2501,718.75 L 1730.7501,718.75 L 1730.7501,706.25 L 1705.7501,706.25 L 1705.7501,718.75 L 1718.2501,718.75 L 1718.2501,731.25 L 1705.7501,731.25 L 1705.7501,743.75 L 1730.7501,743.75 L 1730.7501,731.25 L 1743.2501,731.25 L 1743.2501,768.75 L 1730.7501,768.75 L 1730.7501,756.25 L 1705.7501,756.25 L 1705.7501,768.75 L 1718.2501,768.75 L 1718.2501,781.25 L 1705.7501,781.25 L 1705.7501,793.75 L 1730.7501,793.75 L 1730.7501,781.25 L 1743.2501,781.25 L 1743.2501,793.75 L 1768.2501,793.75 L 1768.2501,781.25 L 1755.7501,781.25 L 1755.7501,756.25 L 1768.2501,756.25 L 1768.2501,768.75 L 1780.7501,768.75 L 1780.7501,756.25 L 1793.2501,756.25 L 1793.2501,781.25 L 1780.7501,781.25 L 1780.7501,793.75 L 1805.7501,793.75 L 1805.7501,781.25 L 1818.2501,781.25 L 1818.2501,793.75 L 1843.2501,793.75 L 1843.2501,781.25 L 1830.7501,781.25 L 1830.7501,768.75 L 1843.2501,768.75 L 1843.2501,756.25 L 1818.2501,756.25 L 1818.2501,768.75 L 1805.7501,768.75 L 1805.7501,743.75 L 1818.2501,743.75 L 1818.2501,731.25 L 1805.7501,731.25 L 1805.7501,706.25 L 1818.2501,706.25 L 1818.2501,718.75 L 1830.7501,718.75 L 1830.7501,706.25 L 1843.2501,706.25 L 1843.2501,731.25 L 1830.7501,731.25 L 1830.7501,743.75 L 1868.2501,743.75 L 1868.2501,731.25 L 1855.7501,731.25 L 1855.7501,706.25 L 1868.2501,706.25 L 1868.2501,718.75 L 1880.7501,718.75 L 1880.7501,706.25 L 1893.2501,706.25 L 1893.2501,731.25 L 1880.7501,731.25 L 1880.7501,743.75 L 1893.2501,743.75 L 1893.2501,768.75 L 1880.7501,768.75 L 1880.7501,756.25 L 1855.7501,756.25 L 1855.7501,768.75 L 1868.2501,768.75 L 1868.2501,781.25 L 1855.7501,781.25 L 1855.7501,793.75 L 1880.7501,793.75 L 1880.7501,781.25 L 1893.2501,781.25 L 1893.2501,793.75 L 1918.2501,793.75 L 1918.2501,781.25 L 1905.7501,781.25 L 1905.7501,756.25 L 1918.2501,756.25 L 1918.2501,768.75 L 1930.7501,768.75 L 1930.7501,756.25 L 1943.2501,756.25 L 1943.2501,781.25 L 1930.7501,781.25 L 1930.7501,793.75 L 1955.7501,793.75 L 1955.7501,781.25 L 1968.2501,781.25 L 1968.2501,793.75 L 1993.2501,793.75 L 1993.2501,781.25 L 1980.7501,781.25 L 1980.7501,775 L 1980.7501,768.75 L 1993.2501,768.75 L 1993.2501,756.25 L 1968.2501,756.25 L 1968.2501,768.75 L 1955.7501,768.75 L 1955.7501,731.25 L 1968.2501,731.25 L 1968.2501,743.75 L 1993.2501,743.75 L 1993.2501,731.25 L 1980.7501,731.25 L 1980.7501,718.75 L 1993.2501,718.75 L 1993.2501,706.25 L 1968.2501,706.25 L 1968.2501,718.75 L 1955.7501,718.75 L 1955.7501,706.25 L 1930.7501,706.25 L 1930.7501,718.75 L 1943.2501,718.75 L 1943.2501,743.75 L 1930.7501,743.75 L 1930.7501,731.25 L 1918.2501,731.25 L 1918.2501,743.75 L 1905.7501,743.75 L 1905.7501,718.75 L 1918.2501,718.75 L 1918.2501,706.25 L 1905.7501,706.25 L 1905.7501,693.75 L 1918.2501,693.75 L 1918.2501,681.25 L 1905.7501,681.25 L 1905.7501,656.25 L 1918.2501,656.25 L 1918.2501,668.75 L 1930.7501,668.75 L 1930.7501,656.25 L 1943.2501,656.25 L 1943.2501,681.25 L 1930.7501,681.25 L 1930.7501,693.75 L 1955.7501,693.75 L 1955.7501,681.25 L 1968.2501,681.25 L 1968.2501,693.75 L 1993.2501,693.75 L 1993.2501,681.25 L 1980.7501,681.25 L 1980.7501,668.75 L 1993.2501,668.75 L 1993.2501,656.25 L 1968.2501,656.25 L 1968.2501,668.75 L 1955.7501,668.75 L 1955.7501,631.25 L 1968.2501,631.25 L 1968.2501,643.75 L 1993.2501,643.75 L 1993.2501,631.25 L 1987.0001,631.25 L 1980.7501,631.25 L 1980.7501,618.75 L 1993.2501,618.75 L 1993.2501,606.25 L 1968.2501,606.25 L 1968.2501,618.75 L 1955.7501,618.75 L 1955.7501,606.25 L 1930.7501,606.25 L 1930.7501,618.75 L 1943.2501,618.75 L 1943.2501,643.75 L 1930.7501,643.75 L 1930.7501,631.25 L 1918.2501,631.25 L 1918.2501,643.75 L 1905.7501,643.75 L 1905.7501,618.75 L 1918.2501,618.75 L 1918.2501,606.25 L 1893.2501,606.25 L 1893.2501,618.75 L 1880.7501,618.75 L 1880.7501,606.25 L 1855.7501,606.25 L 1855.7501,618.75 L 1868.2501,618.75 L 1868.2501,631.25 L 1855.7501,631.25 L 1855.7501,643.75 L 1880.7501,643.75 L 1880.7501,631.25 L 1893.2501,631.25 L 1893.2501,656.25 L 1880.7501,656.25 L 1880.7501,668.75 L 1893.2501,668.75 L 1893.2501,693.75 L 1880.7501,693.75 L 1880.7501,681.25 L 1868.2501,681.25 L 1868.2501,693.75 L 1855.7501,693.75 L 1855.7501,668.75 L 1868.2501,668.75 L 1868.2501,656.25 L 1830.7501,656.25 L 1830.7501,668.75 L 1843.2501,668.75 L 1843.2501,693.75 L 1830.7501,693.75 L 1830.7501,681.25 L 1818.2501,681.25 L 1818.2501,693.75 L 1805.7501,693.75 L 1805.7501,668.75 L 1818.2501,668.75 L 1818.2501,656.25 L 1805.7501,656.25 L 1805.7501,631.25 L 1818.2501,631.25 L 1818.2501,643.75 L 1843.2501,643.75 L 1843.2501,631.25 L 1830.7501,631.25 L 1830.7501,618.75 L 1843.2501,618.75 L 1843.2501,606.25 L 1818.2501,606.25 L 1818.2501,618.75 L 1805.7501,618.75 L 1805.7501,581.25 L 1818.2501,581.25 L 1818.2501,593.75 L 1843.2501,593.75 L 1843.2501,581.25 L 1830.7501,581.25 L 1830.7501,568.75 L 1843.2501,568.75 L 1843.2501,556.25 L 1818.2501,556.25 L 1818.2501,568.75 L 1805.7501,568.75 L 1805.7501,543.75 L 1818.2501,543.75 L 1818.2501,531.25 L 1805.7501,531.25 L 1805.7501,506.25 L 1818.2501,506.25 L 1818.2501,518.75 L 1830.7501,518.75 L 1830.7501,506.25 L 1843.2501,506.25 L 1843.2501,531.25 L 1830.7501,531.25 L 1830.7501,543.75 L 1868.2501,543.75 L 1868.2501,531.25 L 1855.7501,531.25 L 1855.7501,506.25 L 1868.2501,506.25 L 1868.2501,518.75 L 1880.7501,518.75 L 1880.7501,506.25 L 1893.2501,506.25 L 1893.2501,531.25 L 1880.7501,531.25 L 1880.7501,543.75 L 1893.2501,543.75 L 1893.2501,568.75 L 1880.7501,568.75 L 1880.7501,556.25 L 1855.7501,556.25 L 1855.7501,568.75 L 1868.2501,568.75 L 1868.2501,581.25 L 1855.7501,581.25 L 1855.7501,593.75 L 1880.7501,593.75 L 1880.7501,581.25 L 1893.2501,581.25 L 1893.2501,593.75 L 1918.2501,593.75 L 1918.2501,581.25 L 1905.7501,581.25 L 1905.7501,556.25 L 1918.2501,556.25 L 1918.2501,568.75 L 1930.7501,568.75 L 1930.7501,556.25 L 1943.2501,556.25 L 1943.2501,581.25 L 1930.7501,581.25 L 1930.7501,593.75 L 1955.7501,593.75 L 1955.7501,581.25 L 1968.2501,581.25 L 1968.2501,593.75 L 1993.2501,593.75 L 1993.2501,581.25 L 1980.7501,581.25 L 1980.7501,568.75 L 1993.2501,568.75 L 1993.2501,556.25 L 1968.2501,556.25 L 1968.2501,568.75 L 1955.7501,568.75 L 1955.7501,531.25 L 1968.2501,531.25 L 1968.2501,543.75 L 1993.2501,543.75 L 1993.2501,531.25 L 1980.7501,531.25 L 1980.7501,525 L 1980.7501,518.75 L 1993.2501,518.75 L 1993.2501,506.25 L 1968.2501,506.25 L 1968.2501,518.75 L 1955.7501,518.75 L 1955.7501,506.25 L 1930.7501,506.25 L 1930.7501,518.75 L 1943.2501,518.75 L 1943.2501,543.75 L 1930.7501,543.75 L 1930.7501,531.25 L 1918.2501,531.25 L 1918.2501,543.75 L 1905.7501,543.75 L 1905.7501,518.75 L 1918.2501,518.75 L 1918.2501,506.25 L 1905.7501,506.25 L 1905.7501,493.75 L 1918.2501,493.75 L 1918.2501,481.25 L 1905.7501,481.25 L 1905.7501,456.25 L 1918.2501,456.25 L 1918.2501,468.75 L 1930.7501,468.75 L 1930.7501,456.25 L 1943.2501,456.25 L 1943.2501,481.25 L 1930.7501,481.25 L 1930.7501,493.75 L 1955.7501,493.75 L 1955.7501,481.25 L 1968.2501,481.25 L 1968.2501,493.75 L 1993.2501,493.75 L 1993.2501,481.25 L 1980.7501,481.25 L 1980.7501,468.75 L 1993.2501,468.75 L 1993.2501,456.25 L 1968.2501,456.25 L 1968.2501,468.75 L 1955.7501,468.75 L 1955.7501,431.25 L 1968.2501,431.25 L 1968.2501,443.75 L 1993.2501,443.75 L 1993.2501,431.25 L 1980.7501,431.25 L 1980.7501,418.75 L 1993.2501,418.75 L 1993.2501,406.25 L 1968.2501,406.25 L 1968.2501,418.75 L 1955.7501,418.75 L 1955.7501,406.25 L 1930.7501,406.25 L 1930.7501,418.75 L 1943.2501,418.75 L 1943.2501,443.75 L 1930.7501,443.75 L 1930.7501,431.25 L 1918.2501,431.25 L 1918.2501,443.75 L 1905.7501,443.75 L 1905.7501,418.75 L 1918.2501,418.75 L 1918.2501,406.25 L 1893.2501,406.25 L 1893.2501,418.75 L 1880.7501,418.75 L 1880.7501,406.25 L 1855.7501,406.25 L 1855.7501,418.75 L 1868.2501,418.75 L 1868.2501,431.25 L 1855.7501,431.25 L 1855.7501,443.75 L 1880.7501,443.75 L 1880.7501,431.25 L 1893.2501,431.25 L 1893.2501,456.25 L 1880.7501,456.25 L 1880.7501,468.75 L 1893.2501,468.75 L 1893.2501,493.75 L 1880.7501,493.75 L 1880.7501,481.25 L 1868.2501,481.25 L 1868.2501,493.75 L 1855.7501,493.75 L 1855.7501,468.75 L 1868.2501,468.75 L 1868.2501,456.25 L 1830.7501,456.25 L 1830.7501,468.75 L 1843.2501,468.75 L 1843.2501,493.75 L 1830.7501,493.75 L 1830.7501,481.25 L 1818.2501,481.25 L 1818.2501,493.75 L 1805.7501,493.75 L 1805.7501,468.75 L 1818.2501,468.75 L 1818.2501,456.25 L 1805.7501,456.25 L 1805.7501,431.25 L 1818.2501,431.25 L 1818.2501,443.75 L 1843.2501,443.75 L 1843.2501,431.25 L 1830.7501,431.25 L 1830.7501,418.75 L 1843.2501,418.75 L 1843.2501,406.25 L 1818.2501,406.25 L 1818.2501,418.75 L 1805.7501,418.75 L 1805.7501,406.25 L 1780.7501,406.25 L 1780.7501,418.75 L 1793.2501,418.75 L 1793.2501,443.75 L 1780.7501,443.75 L 1780.7501,431.25 L 1768.2501,431.25 L 1768.2501,443.75 L 1755.7501,443.75 L 1755.7501,418.75 L 1768.2501,418.75 L 1768.2501,406.25 L 1743.2501,406.25 L 1743.2501,418.75 L 1730.7501,418.75 L 1730.7501,406.25 L 1705.7501,406.25 L 1705.7501,418.75 L 1718.2501,418.75 L 1718.2501,431.25 L 1705.7501,431.25 L 1705.7501,443.75 L 1730.7501,443.75 L 1730.7501,431.25 L 1743.2501,431.25 L 1743.2501,468.75 L 1730.7501,468.75 L 1730.7501,456.25 L 1705.7501,456.25 L 1705.7501,468.75 L 1718.2501,468.75 L 1718.2501,481.25 L 1705.7501,481.25 L 1705.7501,493.75 L 1730.7501,493.75 L 1730.7501,481.25 L 1743.2501,481.25 L 1743.2501,493.75 L 1768.2501,493.75 L 1768.2501,481.25 L 1755.7501,481.25 L 1755.7501,456.25 L 1768.2501,456.25 L 1768.2501,468.75 L 1780.7501,468.75 L 1780.7501,456.25 L 1793.2501,456.25 L 1793.2501,481.25 L 1780.7501,481.25 L 1780.7501,493.75 L 1793.2501,493.75 L 1793.2501,518.75 L 1780.7501,518.75 L 1780.7501,506.25 L 1755.7501,506.25 L 1755.7501,518.75 L 1768.2501,518.75 L 1768.2501,531.25 L 1755.7501,531.25 L 1755.7501,543.75 L 1780.7501,543.75 L 1780.7501,531.25 L 1793.2501,531.25 L 1793.2501,556.25 L 1780.7501,556.25 L 1780.7501,568.75 L 1793.2501,568.75 L 1793.2501,593.75 L 1780.7501,593.75 L 1780.7501,581.25 L 1768.2501,581.25 L 1768.2501,593.75 L 1755.7501,593.75 L 1755.7501,568.75 L 1768.2501,568.75 L 1768.2501,556.25 L 1730.7501,556.25 L 1730.7501,568.75 L 1743.2501,568.75 L 1743.2501,593.75 L 1730.7501,593.75 L 1730.7501,581.25 L 1718.2501,581.25 L 1718.2501,593.75 L 1705.7501,593.75 L 1705.7501,568.75 L 1718.2501,568.75 L 1718.2501,556.25 L 1705.7501,556.25 L 1705.7501,531.25 L 1718.2501,531.25 L 1718.2501,543.75 L 1743.2501,543.75 L 1743.2501,531.25 L 1730.7501,531.25 L 1730.7501,518.75 L 1743.2501,518.75 L 1743.2501,506.25 L 1718.2501,506.25 L 1718.2501,518.75 L 1705.7501,518.75 L 1705.7501,506.25 L 1693.2501,506.25 L 1693.2501,518.75 L 1680.7501,518.75 L 1680.7501,506.25 L 1655.7501,506.25 L 1655.7501,518.75 L 1668.2501,518.75 L 1668.2501,531.25 L 1655.7501,531.25 L 1655.7501,543.75 L 1680.7501,543.75 L 1680.7501,531.25 L 1693.2501,531.25 L 1693.2501,556.25 L 1680.7501,556.25 L 1680.7501,568.75 L 1693.2501,568.75 L 1693.2501,593.75 L 1680.7501,593.75 L 1680.7501,581.25 L 1668.2501,581.25 L 1668.2501,593.75 L 1655.7501,593.75 L 1655.7501,568.75 L 1668.2501,568.75 L 1668.2501,556.25 L 1630.7501,556.25 L 1630.7501,568.75 L 1643.2501,568.75 L 1643.2501,593.75 L 1630.7501,593.75 L 1630.7501,581.25 L 1618.2501,581.25 L 1618.2501,593.75 L 1605.7501,593.75 L 1605.7501,568.75 L 1618.2501,568.75 L 1618.2501,556.25 L 1605.7501,556.25 L 1605.7501,531.25 L 1618.2501,531.25 L 1618.2501,543.75 L 1643.2501,543.75 L 1643.2501,531.25 L 1630.7501,531.25 L 1630.7501,518.75 L 1643.2501,518.75 L 1643.2501,506.25 L 1624.5001,506.25 L 1618.2501,506.25 L 1618.2501,518.75 L 1605.7501,518.75 L 1605.7501,493.75 L 1618.2501,493.75 L 1618.2501,481.25 L 1605.7501,481.25 L 1605.7501,456.25 L 1618.2501,456.25 L 1618.2501,468.75 L 1630.7501,468.75 L 1630.7501,456.25 L 1643.2501,456.25 L 1643.2501,481.25 L 1630.7501,481.25 L 1630.7501,493.75 L 1655.7501,493.75 L 1655.7501,481.25 L 1668.2501,481.25 L 1668.2501,493.75 L 1693.2501,493.75 L 1693.2501,481.25 L 1680.7501,481.25 L 1680.7501,468.75 L 1693.2501,468.75 L 1693.2501,456.25 L 1668.2501,456.25 L 1668.2501,468.75 L 1655.7501,468.75 L 1655.7501,431.25 L 1668.2501,431.25 L 1668.2501,443.75 L 1693.2501,443.75 L 1693.2501,431.25 L 1680.7501,431.25 L 1680.7501,418.75 L 1693.2501,418.75 L 1693.2501,406.25 L 1668.2501,406.25 L 1668.2501,418.75 L 1655.7501,418.75 L 1655.7501,406.25 L 1630.7501,406.25 L 1630.7501,418.75 L 1643.2501,418.75 L 1643.2501,443.75 L 1630.7501,443.75 L 1630.7501,431.25 L 1618.2501,431.25 L 1618.2501,443.75 L 1605.7501,443.75 L 1605.7501,418.75 L 1618.2501,418.75 L 1618.2501,406.25 L 1605.7501,406.25 L 1605.7501,381.25 L 1618.2501,381.25 L 1618.2501,393.75 L 1643.2501,393.75 L 1643.2501,381.25 L 1630.7501,381.25 L 1630.7501,368.75 L 1643.2501,368.75 L 1643.2501,356.25 L 1618.2501,356.25 L 1618.2501,368.75 L 1605.7501,368.75 L 1605.7501,343.75 L 1618.2501,343.75 L 1618.2501,331.25 L 1605.7501,331.25 L 1605.7501,306.25 L 1618.2501,306.25 L 1618.2501,318.75 L 1630.7501,318.75 L 1630.7501,306.25 L 1643.2501,306.25 L 1643.2501,331.25 L 1630.7501,331.25 L 1630.7501,343.75 L 1668.2501,343.75 L 1668.2501,331.25 L 1655.7501,331.25 L 1655.7501,306.25 L 1668.2501,306.25 L 1668.2501,318.75 L 1680.7501,318.75 L 1680.7501,306.25 L 1693.2501,306.25 L 1693.2501,331.25 L 1680.7501,331.25 L 1680.7501,343.75 L 1693.2501,343.75 L 1693.2501,368.75 L 1680.7501,368.75 L 1680.7501,356.25 L 1655.7501,356.25 L 1655.7501,368.75 L 1668.2501,368.75 L 1668.2501,381.25 L 1655.7501,381.25 L 1655.7501,393.75 L 1680.7501,393.75 L 1680.7501,381.25 L 1693.2501,381.25 L 1693.2501,393.75 L 1718.2501,393.75 L 1718.2501,381.25 L 1705.7501,381.25 L 1705.7501,356.25 L 1718.2501,356.25 L 1718.2501,368.75 L 1730.7501,368.75 L 1730.7501,356.25 L 1743.2501,356.25 L 1743.2501,381.25 L 1730.7501,381.25 L 1730.7501,393.75 L 1755.7501,393.75 L 1755.7501,381.25 L 1768.2501,381.25 L 1768.2501,393.75 L 1793.2501,393.75 L 1793.2501,381.25 L 1780.7501,381.25 L 1780.7501,368.75 L 1793.2501,368.75 L 1793.2501,356.25 L 1768.2501,356.25 L 1768.2501,368.75 L 1755.7501,368.75 L 1755.7501,331.25 L 1768.2501,331.25 L 1768.2501,343.75 L 1793.2501,343.75 L 1793.2501,331.25 L 1780.7501,331.25 L 1780.7501,318.75 L 1793.2501,318.75 L 1793.2501,306.25 L 1768.2501,306.25 L 1768.2501,318.75 L 1755.7501,318.75 L 1755.7501,306.25 L 1730.7501,306.25 L 1730.7501,318.75 L 1743.2501,318.75 L 1743.2501,343.75 L 1730.7501,343.75 L 1730.7501,331.25 L 1718.2501,331.25 L 1718.2501,343.75 L 1705.7501,343.75 L 1705.7501,318.75 L 1718.2501,318.75 L 1718.2501,306.25 L 1705.7501,306.25 L 1705.7501,293.75 L 1718.2501,293.75 L 1718.2501,281.25 L 1705.7501,281.25 L 1705.7501,256.25 L 1718.2501,256.25 L 1718.2501,268.75 L 1730.7501,268.75 L 1730.7501,256.25 L 1743.2501,256.25 L 1743.2501,281.25 L 1730.7501,281.25 L 1730.7501,293.75 L 1755.7501,293.75 L 1755.7501,281.25 L 1768.2501,281.25 L 1768.2501,293.75 L 1793.2501,293.75 L 1793.2501,281.25 L 1780.7501,281.25 L 1780.7501,268.75 L 1793.2501,268.75 L 1793.2501,256.25 L 1768.2501,256.25 L 1768.2501,268.75 L 1755.7501,268.75 L 1755.7501,231.25 L 1768.2501,231.25 L 1768.2501,243.75 L 1793.2501,243.75 L 1793.2501,231.25 L 1780.7501,231.25 L 1780.7501,218.75 L 1793.2501,218.75 L 1793.2501,206.25 L 1768.2501,206.25 L 1768.2501,218.75 L 1755.7501,218.75 L 1755.7501,206.25 L 1730.7501,206.25 L 1730.7501,218.75 L 1743.2501,218.75 L 1743.2501,243.75 L 1730.7501,243.75 L 1730.7501,231.25 L 1718.2501,231.25 L 1718.2501,243.75 L 1705.7501,243.75 L 1705.7501,218.75 L 1718.2501,218.75 L 1718.2501,206.25 L 1693.2501,206.25 L 1693.2501,218.75 L 1680.7501,218.75 L 1680.7501,206.25 L 1655.7501,206.25 L 1655.7501,218.75 L 1668.2501,218.75 L 1668.2501,231.25 L 1655.7501,231.25 L 1655.7501,243.75 L 1680.7501,243.75 L 1680.7501,231.25 L 1693.2501,231.25 L 1693.2501,256.25 L 1680.7501,256.25 L 1680.7501,268.75 L 1693.2501,268.75 L 1693.2501,293.75 L 1680.7501,293.75 L 1680.7501,281.25 L 1668.2501,281.25 L 1668.2501,293.75 L 1655.7501,293.75 L 1655.7501,268.75 L 1668.2501,268.75 L 1668.2501,256.25 L 1630.7501,256.25 L 1630.7501,268.75 L 1643.2501,268.75 L 1643.2501,293.75 L 1630.7501,293.75 L 1630.7501,281.25 L 1618.2501,281.25 L 1618.2501,293.75 L 1605.7501,293.75 L 1605.7501,268.75 L 1618.2501,268.75 L 1618.2501,256.25 L 1605.7501,256.25 L 1605.7501,231.25 L 1618.2501,231.25 L 1618.2501,243.75 L 1643.2501,243.75 L 1643.2501,231.25 L 1630.7501,231.25 L 1630.7501,218.75 L 1643.2501,218.75 L 1643.2501,206.25 L 1618.2501,206.25 L 1618.2501,218.75 L 1605.7501,218.75 L 1605.7501,193.75 L 1618.2501,193.75 L 1618.2501,181.25 L 1605.7501,181.25 L 1605.7501,156.25 L 1618.2501,156.25 L 1618.2501,168.75 L 1630.7501,168.75 L 1630.7501,156.25 L 1643.2501,156.25 L 1643.2501,181.25 L 1630.7501,181.25 L 1630.7501,193.75 L 1655.7501,193.75 L 1655.7501,181.25 L 1668.2501,181.25 L 1668.2501,193.75 L 1693.2501,193.75 L 1693.2501,181.25 L 1680.7501,181.25 L 1680.7501,168.75 L 1693.2501,168.75 L 1693.2501,156.25 L 1668.2501,156.25 L 1668.2501,168.75 L 1655.7501,168.75 L 1655.7501,131.25 L 1668.2501,131.25 L 1668.2501,143.75 L 1693.2501,143.75 L 1693.2501,131.25 L 1680.7501,131.25 L 1680.7501,118.75 L 1693.2501,118.75 L 1693.2501,106.25 L 1668.2501,106.25 L 1668.2501,118.75 L 1655.7501,118.75 L 1655.7501,106.25 L 1630.7501,106.25 L 1630.7501,118.75 L 1643.2501,118.75 L 1643.2501,143.75 L 1630.7501,143.75 L 1630.7501,131.25 L 1618.2501,131.25 L 1618.2501,143.75 L 1605.7501,143.75 L 1605.7501,118.75 L 1618.2501,118.75 L 1618.2501,106.25 L 1605.7501,106.25 L 1605.7501,81.25 L 1618.2501,81.25 L 1618.2501,93.75 L 1643.2501,93.75 L 1643.2501,81.25 L 1630.7501,81.25 L 1630.7501,68.75 L 1643.2501,68.75 L 1643.2501,56.25 L 1618.2501,56.25 L 1618.2501,68.75 L 1605.7501,68.75 L 1605.7501,43.75 L 1618.2501,43.75 L 1618.2501,31.25 L 1605.7501,31.25 L 1605.7501,6.25 L 1618.2501,6.25 L 1618.2501,18.75 L 1630.7501,18.75 L 1630.7501,6.25 L 1643.2501,6.25 L 1643.2501,31.25 L 1630.7501,31.25 L 1630.7501,43.75 L 1668.2501,43.75 L 1668.2501,31.25 L 1655.7501,31.25 L 1655.7501,6.25 L 1668.2501,6.25 L 1668.2501,18.75 L 1680.7501,18.75 L 1680.7501,6.25 L 1693.2501,6.25 L 1693.2501,31.25 L 1680.7501,31.25 L 1680.7501,43.75 L 1693.2501,43.75 L 1693.2501,68.75 L 1680.7501,68.75 L 1680.7501,56.25 L 1655.7501,56.25 L 1655.7501,68.75 L 1668.2501,68.75 L 1668.2501,81.25 L 1655.7501,81.25 L 1655.7501,93.75 L 1680.7501,93.75 L 1680.7501,81.25 L 1693.2501,81.25 L 1693.2501,93.75 L 1705.7501,93.75 L 1705.7501,81.25 L 1718.2501,81.25 L 1718.2501,93.75 L 1743.2501,93.75 L 1743.2501,81.25 L 1730.7501,81.25 L 1730.7501,68.75 L 1743.2501,68.75 L 1743.2501,56.25 L 1718.2501,56.25 L 1718.2501,68.75 L 1705.7501,68.75 L 1705.7501,43.75 L 1718.2501,43.75 L 1718.2501,31.25 L 1705.7501,31.25 L 1705.7501,6.25 L 1718.2501,6.25 L 1718.2501,18.75 L 1730.7501,18.75 L 1730.7501,6.25 L 1743.2501,6.25 L 1743.2501,31.25 L 1730.7501,31.25 L 1730.7501,43.75 L 1768.2501,43.75 L 1768.2501,31.25 L 1755.7501,31.25 L 1755.7501,6.25 L 1768.2501,6.25 L 1768.2501,18.75 L 1780.7501,18.75 L 1780.7501,6.25 L 1793.2501,6.25 L 1793.2501,31.25 L 1780.7501,31.25 L 1780.7501,43.75 L 1793.2501,43.75 L 1793.2501,68.75 L 1780.7501,68.75 L 1780.7501,56.25 L 1755.7501,56.25 L 1755.7501,68.75 L 1768.2501,68.75 L 1768.2501,81.25 L 1755.7501,81.25 L 1755.7501,93.75 L 1780.7501,93.75 L 1780.7501,81.25 L 1793.2501,81.25 L 1793.2501,106.25 L 1780.7501,106.25 L 1780.7501,118.75 L 1793.2501,118.75 L 1793.2501,143.75 L 1780.7501,143.75 L 1780.7501,131.25 L 1768.2501,131.25 L 1768.2501,143.75 L 1755.7501,143.75 L 1755.7501,118.75 L 1768.2501,118.75 L 1768.2501,106.25 L 1743.2501,106.25 L 1743.2501,118.75 L 1730.7501,118.75 L 1730.7501,106.25 L 1705.7501,106.25 L 1705.7501,118.75 L 1718.2501,118.75 L 1718.2501,131.25 L 1705.7501,131.25 L 1705.7501,143.75 L 1730.7501,143.75 L 1730.7501,131.25 L 1743.2501,131.25 L 1743.2501,168.75 L 1730.7501,168.75 L 1730.7501,156.25 L 1705.7501,156.25 L 1705.7501,168.75 L 1718.2501,168.75 L 1718.2501,181.25 L 1705.7501,181.25 L 1705.7501,193.75 L 1730.7501,193.75 L 1730.7501,181.25 L 1743.2501,181.25 L 1743.2501,193.75 L 1768.2501,193.75 L 1768.2501,181.25 L 1755.7501,181.25 L 1755.7501,156.25 L 1768.2501,156.25 L 1768.2501,168.75 L 1780.7501,168.75 L 1780.7501,156.25 L 1793.2501,156.25 L 1793.2501,181.25 L 1780.7501,181.25 L 1780.7501,193.75 L 1818.2501,193.75 L 1818.2501,181.25 L 1805.7501,181.25 L 1805.7501,156.25 L 1818.2501,156.25 L 1818.2501,168.75 L 1830.7501,168.75 L 1830.7501,156.25 L 1843.2501,156.25 L 1843.2501,181.25 L 1830.7501,181.25 L 1830.7501,193.75 L 1855.7501,193.75 L 1855.7501,181.25 L 1868.2501,181.25 L 1868.2501,193.75 L 1893.2501,193.75 L 1893.2501,181.25 L 1880.7501,181.25 L 1880.7501,168.75 L 1893.2501,168.75 L 1893.2501,156.25 L 1868.2501,156.25 L 1868.2501,168.75 L 1855.7501,168.75 L 1855.7501,131.25 L 1868.2501,131.25 L 1868.2501,143.75 L 1893.2501,143.75 L 1893.2501,131.25 L 1880.7501,131.25 L 1880.7501,118.75 L 1893.2501,118.75 L 1893.2501,106.25 L 1868.2501,106.25 L 1868.2501,118.75 L 1855.7501,118.75 L 1855.7501,106.25 L 1830.7501,106.25 L 1830.7501,118.75 L 1843.2501,118.75 L 1843.2501,143.75 L 1830.7501,143.75 L 1830.7501,131.25 L 1818.2501,131.25 L 1818.2501,143.75 L 1805.7501,143.75 L 1805.7501,118.75 L 1818.2501,118.75 L 1818.2501,106.25 L 1805.7501,106.25 L 1805.7501,81.25 L 1818.2501,81.25 L 1818.2501,93.75 L 1843.2501,93.75 L 1843.2501,81.25 L 1830.7501,81.25 L 1830.7501,68.75 L 1843.2501,68.75 L 1843.2501,56.25 L 1818.2501,56.25 L 1818.2501,68.75 L 1805.7501,68.75 L 1805.7501,43.75 L 1818.2501,43.75 L 1818.2501,31.25 L 1805.7501,31.25 L 1805.7501,6.25 L 1818.2501,6.25 L 1818.2501,18.75 L 1830.7501,18.75 L 1830.7501,6.25 L 1843.2501,6.25 L 1843.2501,31.25 L 1830.7501,31.25 L 1830.7501,43.75 L 1868.2501,43.75 L 1868.2501,31.25 L 1855.7501,31.25 L 1855.7501,6.25 L 1868.2501,6.25 L 1868.2501,18.75 L 1880.7501,18.75 L 1880.7501,6.25 L 1893.2501,6.25 L 1893.2501,31.25 L 1880.7501,31.25 L 1880.7501,43.75 L 1893.2501,43.75 L 1893.2501,68.75 L 1880.7501,68.75 L 1880.7501,56.25 L 1855.7501,56.25 L 1855.7501,68.75 L 1868.2501,68.75 L 1868.2501,81.25 L 1855.7501,81.25 L 1855.7501,93.75 L 1880.7501,93.75 L 1880.7501,81.25 L 1893.2501,81.25 L 1893.2501,93.75 L 1905.7501,93.75 L 1905.7501,81.25 L 1918.2501,81.25 L 1918.2501,93.75 L 1943.2501,93.75 L 1943.2501,81.25 L 1930.7501,81.25 L 1930.7501,68.75 L 1943.2501,68.75 L 1943.2501,56.25 L 1918.2501,56.25 L 1918.2501,68.75 L 1905.7501,68.75 L 1905.7501,43.75 L 1918.2501,43.75 L 1918.2501,31.25 L 1905.7501,31.25 L 1905.7501,6.25 L 1918.2501,6.25 L 1918.2501,18.75 L 1930.7501,18.75 L 1930.7501,6.25 L 1943.2501,6.25 L 1943.2501,31.25 L 1930.7501,31.25 L 1930.7501,43.75 L 1968.2501,43.75 L 1968.2501,31.25 L 1955.7501,31.25 L 1955.7501,6.25 L 1968.2501,6.25 L 1968.2501,18.75 L 1980.7501,18.75 L 1980.7501,6.25 L 1993.2501,6.25 L 1993.2501,31.25 L 1980.7501,31.25 L 1980.7501,43.75 L 1993.2501,43.75 L 1993.2501,68.75 L 1980.7501,68.75 L 1980.7501,56.25 L 1955.7501,56.25 L 1955.7501,68.75 L 1968.2501,68.75 L 1968.2501,81.25 L 1955.7501,81.25 L 1955.7501,93.75 L 1980.7501,93.75 L 1980.7501,81.25 L 1993.2501,81.25 L 1993.2501,106.25 L 1980.7501,106.25 L 1980.7501,118.75 L 1993.2501,118.75 L 1993.2501,143.75 L 1980.7501,143.75 L 1980.7501,131.25 L 1968.2501,131.25 L 1968.2501,143.75 L 1955.7501,143.75 L 1955.7501,118.75 L 1968.2501,118.75 L 1968.2501,106.25 L 1943.2501,106.25 L 1943.2501,118.75 L 1930.7501,118.75 L 1930.7501,106.25 L 1905.7501,106.25 L 1905.7501,118.75 L 1918.2501,118.75 L 1918.2501,131.25 L 1905.7501,131.25 L 1905.7501,143.75 L 1930.7501,143.75 L 1930.7501,131.25 L 1943.2501,131.25 L 1943.2501,168.75 L 1930.7501,168.75 L 1930.7501,156.25 L 1905.7501,156.25 L 1905.7501,168.75 L 1918.2501,168.75 L 1918.2501,181.25 L 1905.7501,181.25 L 1905.7501,193.75 L 1930.7501,193.75 L 1930.7501,181.25 L 1943.2501,181.25 L 1943.2501,193.75 L 1968.2501,193.75 L 1968.2501,181.25 L 1955.7501,181.25 L 1955.7501,156.25 L 1968.2501,156.25 L 1968.2501,168.75 L 1980.7501,168.75 L 1980.7501,156.25 L 1993.2501,156.25 L 1993.2501,181.25 L 1980.7501,181.25 L 1980.7501,193.75 L 1993.2501,193.75 L 1993.2501,218.75 L 1980.7501,218.75 L 1980.7501,206.25 L 1955.7501,206.25 L 1955.7501,218.75 L 1968.2501,218.75 L 1968.2501,231.25 L 1955.7501,231.25 L 1955.7501,243.75 L 1980.7501,243.75 L 1980.7501,231.25 L 1993.2501,231.25 L 1993.2501,256.25 L 1980.7501,256.25 L 1980.7501,268.75 L 1993.2501,268.75 L 1993.2501,293.75 L 1980.7501,293.75 L 1980.7501,281.25 L 1968.2501,281.25 L 1968.2501,293.75 L 1955.7501,293.75 L 1955.7501,268.75 L 1968.2501,268.75 L 1968.2501,256.25 L 1930.7501,256.25 L 1930.7501,268.75 L 1943.2501,268.75 L 1943.2501,293.75 L 1930.7501,293.75 L 1930.7501,281.25 L 1918.2501,281.25 L 1918.2501,293.75 L 1905.7501,293.75 L 1905.7501,268.75 L 1918.2501,268.75 L 1918.2501,256.25 L 1905.7501,256.25 L 1905.7501,231.25 L 1918.2501,231.25 L 1918.2501,243.75 L 1943.2501,243.75 L 1943.2501,231.25 L 1930.7501,231.25 L 1930.7501,218.75 L 1943.2501,218.75 L 1943.2501,206.25 L 1918.2501,206.25 L 1918.2501,218.75 L 1905.7501,218.75 L 1905.7501,206.25 L 1880.7501,206.25 L 1880.7501,218.75 L 1893.2501,218.75 L 1893.2501,231.25 L 1893.2501,243.75 L 1880.7501,243.75 L 1880.7501,231.25 L 1868.2501,231.25 L 1868.2501,243.75 L 1855.7501,243.75 L 1855.7501,218.75 L 1868.2501,218.75 L 1868.2501,206.25 L 1843.2501,206.25 L 1843.2501,218.75 L 1830.7501,218.75 L 1830.7501,206.25 L 1805.7501,206.25 L 1805.7501,218.75 L 1818.2501,218.75 L 1818.2501,231.25 L 1805.7501,231.25 L 1805.7501,243.75 L 1830.7501,243.75 L 1830.7501,231.25 L 1843.2501,231.25 L 1843.2501,268.75 L 1830.7501,268.75 L 1830.7501,256.25 L 1805.7501,256.25 L 1805.7501,268.75 L 1818.2501,268.75 L 1818.2501,281.25 L 1805.7501,281.25 L 1805.7501,293.75 L 1830.7501,293.75 L 1830.7501,281.25 L 1843.2501,281.25 L 1843.2501,293.75 L 1868.2501,293.75 L 1868.2501,281.25 L 1855.7501,281.25 L 1855.7501,256.25 L 1868.2501,256.25 L 1868.2501,268.75 L 1880.7501,268.75 L 1880.7501,256.25 L 1893.2501,256.25 L 1893.2501,281.25 L 1880.7501,281.25 L 1880.7501,293.75 L 1893.2501,293.75 L 1893.2501,306.25 L 1880.7501,306.25 L 1880.7501,318.75 L 1893.2501,318.75 L 1893.2501,343.75 L 1880.7501,343.75 L 1880.7501,331.25 L 1868.2501,331.25 L 1868.2501,343.75 L 1855.7501,343.75 L 1855.7501,318.75 L 1868.2501,318.75 L 1868.2501,306.25 L 1843.2501,306.25 L 1843.2501,318.75 L 1830.7501,318.75 L 1830.7501,306.25 L 1805.7501,306.25 L 1805.7501,318.75 L 1818.2501,318.75 L 1818.2501,331.25 L 1805.7501,331.25 L 1805.7501,343.75 L 1818.2501,343.75 L 1830.7501,343.75 L 1830.7501,331.25 L 1843.2501,331.25 L 1843.2501,368.75 L 1830.7501,368.75 L 1830.7501,356.25 L 1805.7501,356.25 L 1805.7501,368.75 L 1818.2501,368.75 L 1818.2501,381.25 L 1805.7501,381.25 L 1805.7501,393.75 L 1830.7501,393.75 L 1830.7501,381.25 L 1843.2501,381.25 L 1843.2501,393.75 L 1868.2501,393.75 L 1868.2501,381.25 L 1855.7501,381.25 L 1855.7501,356.25 L 1868.2501,356.25 L 1868.2501,368.75 L 1880.7501,368.75 L 1880.7501,356.25 L 1893.2501,356.25 L 1893.2501,381.25 L 1880.7501,381.25 L 1880.7501,393.75 L 1905.7501,393.75 L 1905.7501,381.25 L 1918.2501,381.25 L 1918.2501,393.75 L 1943.2501,393.75 L 1943.2501,381.25 L 1930.7501,381.25 L 1930.7501,368.75 L 1943.2501,368.75 L 1943.2501,356.25 L 1918.2501,356.25 L 1918.2501,368.75 L 1905.7501,368.75 L 1905.7501,343.75 L 1918.2501,343.75 L 1918.2501,331.25 L 1905.7501,331.25 L 1905.7501,306.25 L 1918.2501,306.25 L 1918.2501,318.75 L 1930.7501,318.75 L 1930.7501,306.25 L 1943.2501,306.25 L 1943.2501,331.25 L 1930.7501,331.25 L 1930.7501,343.75 L 1968.2501,343.75 L 1968.2501,331.25 L 1955.7501,331.25 L 1955.7501,306.25 L 1968.2501,306.25 L 1968.2501,318.75 L 1980.7501,318.75 L 1980.7501,306.25 L 1993.2501,306.25 L 1993.2501,331.25 L 1980.7501,331.25 L 1980.7501,343.75 L 1993.2501,343.75 L 1993.2501,368.75 L 1980.7501,368.75 L 1980.7501,356.25 L 1955.7501,356.25 L 1955.7501,368.75 L 1968.2501,368.75 L 1968.2501,381.25 L 1955.7501,381.25 L 1955.7501,393.75 L 1980.7501,393.75 L 1980.7501,381.25 L 1993.2501,381.25 L 1993.2501,393.75 L 1999.5001,393.75"
         style="fill:none;fill-rule:evenodd;stroke:red;stroke-width:5;stroke-linecap:butt;stroke-linejoin:miter;stroke-miterlimit:4;stroke-dasharray:none;stroke-opacity:1"
         id="path4946" />
    </g>
  </g>
</svg>
